<svg width="331" height="152" viewBox="0 0 331 152" fill="none" xmlns="http://www.w3.org/2000/svg">
<rect x="151" width="105" height="105" fill="url(#paint0_linear_2_33)"/>
<rect x="183.85" y="6.72754" width="105" height="92.774" transform="rotate(12.7216 183.85 6.72754)" fill="url(#paint1_linear_2_33)"/>
<path d="M26.4 124.9C23.3333 124.9 20.4333 124.267 17.7 123C14.9667 121.733 12.5667 120 10.5 117.8C8.43333 115.533 6.8 112.9 5.6 109.9C4.4 106.833 3.8 103.567 3.8 100.1C3.8 96.7667 4.4 93.6333 5.6 90.7C6.8 87.7 8.43333 85.1 10.5 82.9C12.6333 80.6333 15.0667 78.8667 17.8 77.6C20.5333 76.3333 23.4 75.7 26.4 75.7C29.6 75.7 32.4667 76.3333 35 77.6C37.5333 78.8667 39.6667 80.6333 41.4 82.9C43.2 85.1 44.5667 87.7 45.5 90.7C46.4333 93.6333 46.9333 96.8 47 100.2C47 103.6 46.5333 106.8 45.6 109.8C44.7333 112.733 43.4 115.333 41.6 117.6C39.8667 119.867 37.7 121.667 35.1 123C32.5667 124.267 29.6667 124.9 26.4 124.9ZM28 113.2C30.3333 113.2 32.4 112.667 34.2 111.6C36.0667 110.467 37.5333 108.933 38.6 107C39.7333 105.067 40.3 102.867 40.3 100.4C40.3 97.8667 39.7333 95.6333 38.6 93.7C37.5333 91.7667 36.0667 90.2333 34.2 89.1C32.4 87.9667 30.3333 87.4 28 87.4C25.6667 87.4 23.5667 87.9667 21.7 89.1C19.8333 90.1667 18.3333 91.7 17.2 93.7C16.1333 95.6333 15.6 97.8667 15.6 100.4C15.6 102.867 16.1333 105.067 17.2 107C18.3333 108.933 19.8333 110.467 21.7 111.6C23.6333 112.667 25.7333 113.2 28 113.2ZM46.5 124.9C44.6333 124.9 43.2667 124.6 42.4 124C41.5333 123.333 40.9667 122.3 40.7 120.9V59.3C40.7 58.1667 40.7667 57.1667 40.9 56.3C41.1 55.3667 41.6 54.6333 42.4 54.1C43.2667 53.5 44.6 53.2 46.4 53.2C48.3333 53.2 49.7 53.4667 50.5 54C51.3 54.5333 51.8 55.2667 52 56.2C52.2667 57.0667 52.4 58.0667 52.4 59.2V118.8C52.4 119.933 52.3 120.967 52.1 121.9C51.9 122.833 51.3667 123.567 50.5 124.1C49.7 124.633 48.3667 124.9 46.5 124.9ZM69.1195 125C67.3195 125 65.9862 124.7 65.1195 124.1C64.2529 123.567 63.7195 122.867 63.5195 122C63.3195 121.067 63.2195 120.033 63.2195 118.9V81.7C63.2195 80.6333 63.3195 79.6667 63.5195 78.8C63.7862 77.8667 64.3195 77.1333 65.1195 76.6C65.9862 76.0667 67.3529 75.8 69.2195 75.8C71.0862 75.8 72.4195 76.0667 73.2195 76.6C74.0862 77.1333 74.6195 77.8667 74.8195 78.8C75.0195 79.7333 75.1195 80.7667 75.1195 81.9V119C75.1195 120.133 75.0195 121.167 74.8195 122.1C74.6195 122.967 74.0862 123.667 73.2195 124.2C72.4195 124.733 71.0529 125 69.1195 125ZM69.1195 66.1C67.1862 66.1 65.7529 65.8333 64.8195 65.3C63.9529 64.7 63.3862 63.9 63.1195 62.9C62.9195 61.9 62.8195 60.8 62.8195 59.6C62.8195 58.3333 62.9195 57.2333 63.1195 56.3C63.3862 55.3667 63.9862 54.6333 64.9195 54.1C65.8529 53.5 67.2862 53.2 69.2195 53.2C71.2195 53.2 72.6529 53.5 73.5195 54.1C74.3862 54.7 74.9529 55.5 75.2195 56.5C75.4862 57.4333 75.6195 58.5333 75.6195 59.8C75.6195 60.9333 75.4862 62 75.2195 63C74.9529 64 74.3862 64.7667 73.5195 65.3C72.6529 65.8333 71.1862 66.1 69.1195 66.1Z" fill="#CE521C"/>
<path d="M101.976 126.117C100.252 125.94 98.4486 125.555 96.5661 124.959C94.6769 124.431 92.8709 123.743 91.1483 122.896C89.4325 121.983 87.959 120.994 86.7278 119.93C85.5698 118.806 84.8861 117.63 84.677 116.402C84.4797 115.712 84.4448 115.071 84.5723 114.481C84.7066 113.825 84.9736 113.182 85.3732 112.553C85.7796 111.858 86.3518 111.179 87.0898 110.518C87.7614 109.849 88.3991 109.512 89.0028 109.507C89.6796 109.443 90.4881 109.727 91.4285 110.359C92.2567 110.779 93.1409 111.306 94.0813 111.938C95.088 112.577 96.0947 113.217 97.1014 113.856C98.1745 114.502 99.2577 115.049 100.351 115.496C101.511 115.95 102.654 116.235 103.782 116.351C106.236 116.602 108.233 116.405 109.773 115.759C111.321 115.046 112.173 113.927 112.329 112.402C112.418 111.54 112.264 110.753 111.867 110.042C111.471 109.332 110.896 108.736 110.141 108.257C109.459 107.718 108.604 107.228 107.577 106.788C106.623 106.288 105.563 105.844 104.396 105.456C103.303 105.009 102.146 104.522 100.927 103.995C99.3168 103.361 97.7167 102.627 96.1267 101.794C94.5367 100.961 93.1329 99.9454 91.9154 98.7483C90.7641 97.558 89.8721 96.1263 89.2395 94.453C88.6069 92.7798 88.413 90.7494 88.6578 88.3619C88.9638 85.3775 89.9185 82.9288 91.522 81.0157C93.1986 79.0431 95.4543 77.6325 98.2889 76.7839C101.124 75.9353 104.464 75.7081 108.311 76.1025C109.637 76.2385 110.887 76.4672 112.06 76.7886C113.3 77.1167 114.463 77.5375 115.55 78.0511C116.709 78.5051 117.793 79.0517 118.799 79.6911C119.872 80.3372 120.872 81.0429 121.799 81.8081C123.362 82.9065 124.112 84.0892 124.049 85.3561C123.993 86.5566 123.396 87.8022 122.258 89.0929C121.434 89.9466 120.636 90.535 119.866 90.8581C119.102 91.1149 118.34 91.0367 117.578 90.6235C116.571 89.9841 115.468 89.3014 114.27 88.5754C113.144 87.7898 111.942 87.0969 110.663 86.4966C109.45 85.9032 108.148 85.5351 106.755 85.3923C105.429 85.2563 104.215 85.3329 103.113 85.622C102.011 85.9111 101.157 86.3932 100.552 87.0683C99.9464 87.7434 99.5927 88.5784 99.4907 89.5732C99.3955 90.5016 99.5826 91.2915 100.052 91.9428C100.521 92.594 101.167 93.1628 101.988 93.6491C102.809 94.1354 103.8 94.6056 104.96 95.0596C106.126 95.4473 107.359 95.8417 108.658 96.243C110.474 96.8313 112.313 97.5225 114.175 98.3166C116.038 99.1106 117.71 100.12 119.193 101.344C120.742 102.575 121.922 104.137 122.733 106.03C123.551 107.856 123.818 110.162 123.532 112.947C123.036 117.789 120.861 121.352 117.008 123.638C113.221 125.93 108.21 126.756 101.976 126.117Z" fill="#CE521C"/>
<path d="M143.471 123.295C142.143 123.173 141.105 122.81 140.358 122.206C139.67 121.674 139.161 121.024 138.83 120.257C138.565 119.497 138.327 118.805 138.117 118.183L126.887 79.793C126.605 78.4951 126.503 77.4146 126.583 76.5515C126.728 75.6946 127.127 74.9949 127.78 74.4524C128.505 73.8496 129.519 73.3739 130.823 73.0253C133.027 72.3577 134.708 72.278 135.867 72.7863C137.091 73.3007 137.917 74.5147 138.343 76.4285L145.495 102.393L156.266 79.1822C156.521 78.6031 156.877 77.9999 157.337 77.3727C157.796 76.7455 158.412 76.2331 159.185 75.8356C160.031 75.3778 161.117 75.21 162.445 75.3321C163.839 75.4604 164.91 75.8267 165.658 76.4311C166.412 76.9691 166.957 77.5884 167.295 78.2889C167.698 78.9955 167.939 79.6537 168.017 80.2633L174.354 105.249L185.661 81.6859C186.647 79.7012 187.768 78.4319 189.024 77.878C190.28 77.324 191.9 77.5401 193.885 78.5261C195.67 79.4937 196.84 80.6056 197.394 81.8616C197.954 83.0513 197.75 84.5388 196.782 86.3243L178.646 121.912C178.319 122.552 177.923 123.218 177.457 123.912C177.064 124.545 176.448 125.058 175.609 125.449C174.83 125.913 173.809 126.087 172.548 125.971C171.22 125.849 170.18 125.519 169.426 124.981C168.732 124.515 168.22 123.899 167.889 123.132C167.557 122.365 167.296 121.571 167.104 120.75L160.703 95.3568L149.777 119.156C149.293 120.049 148.851 120.845 148.452 121.544C148.053 122.244 147.473 122.726 146.712 122.991C145.946 123.322 144.865 123.424 143.471 123.295Z" fill="#CE521C"/>
<path d="M184.936 131.316C184.936 131.316 201.13 92.5637 203.637 86.5663C206.143 80.5689 209.613 72.2648 217.585 75.5961C225.557 78.9274 224.293 83.8184 220.245 93.5066C216.196 103.195 201.545 138.256 201.545 138.256" stroke="#CE521C" stroke-width="5" stroke-linecap="round"/>
<path d="M194.356 67.124C194.998 70.8124 224.229 66.0663 224.229 66.0663L219.924 51.2691C219.924 51.2691 203.319 53.1251 202.488 54.3063C201.657 55.4875 207.286 60.0348 207.286 60.0348C207.286 60.0348 193.713 63.4355 194.356 67.124Z" stroke="#CE521C" stroke-width="3.40365" stroke-linecap="round"/>
<circle cx="223.28" cy="58.631" r="8.21096" transform="rotate(-99.881 223.28 58.631)" fill="white" stroke="#CE521C" stroke-width="4"/>
<path d="M244.258 123.666C241.226 122.449 238.727 120.8 236.761 118.718C234.882 116.6 233.516 114.184 232.665 111.472C231.9 108.723 231.631 105.813 231.857 102.743C232.145 99.6984 232.922 96.5981 234.188 93.4426C235.516 90.3119 237.159 87.5592 239.117 85.1843C241.101 82.7476 243.306 80.831 245.734 79.4347C248.224 78.0631 250.88 77.2612 253.703 77.0289C256.526 76.7967 259.422 77.2763 262.392 78.4679C265.238 79.6098 267.663 81.265 269.666 83.4335C271.731 85.6269 273.301 88.1602 274.375 91.0334C275.511 93.9314 276.077 96.996 276.074 100.227C276.095 103.396 275.473 106.559 274.207 109.714C272.916 112.932 271.167 115.678 268.961 117.954C266.756 120.229 264.284 122.003 261.547 123.275C258.834 124.486 255.986 125.139 253.003 125.235C250.019 125.331 247.104 124.808 244.258 123.666ZM217.951 135.523C216.281 134.853 215.142 134.109 214.537 133.291C213.931 132.473 213.697 131.625 213.834 130.746C213.971 129.867 214.25 128.902 214.672 127.85L236.083 74.4851C236.505 73.4332 236.97 72.5424 237.479 71.8125C237.987 71.0826 238.712 70.6192 239.653 70.4221C240.68 70.1879 242.03 70.406 243.7 71.0762C245.309 71.7217 246.478 72.478 247.207 73.3454C247.937 74.2127 248.221 75.2962 248.058 76.5959L225.754 132.188C225.394 133.265 224.929 134.156 224.358 134.861C223.825 135.653 223.057 136.135 222.054 136.307C221.051 136.479 219.684 136.218 217.951 135.523ZM246.943 112.675C249.109 113.544 251.257 113.831 253.386 113.536C255.541 113.18 257.473 112.303 259.183 110.906C260.979 109.471 262.337 107.61 263.255 105.32C264.199 102.969 264.504 100.685 264.172 98.4691C263.902 96.2776 263.1 94.3394 261.764 92.6544C260.454 90.9074 258.716 89.5996 256.55 88.7307C254.447 87.8867 252.318 87.6431 250.163 87.9998C248.009 88.3566 246.046 89.2211 244.274 90.5934C242.589 91.9287 241.275 93.7719 240.331 96.123C239.413 98.4123 239.076 100.684 239.322 102.937C239.654 105.153 240.475 107.135 241.785 108.882C243.12 110.567 244.84 111.831 246.943 112.675Z" fill="#CE521C"/>
<path d="M300.917 127.232C296.643 126.514 293.011 125.195 290.022 123.274C287.098 121.363 284.749 119.043 282.977 116.311C281.281 113.526 280.123 110.56 279.502 107.414C278.958 104.213 278.956 101.001 279.496 97.7797C280.291 93.0459 282.082 89.0202 284.87 85.7025C287.657 82.3849 291.134 79.9941 295.301 78.5303C299.533 77.0775 304.148 76.7704 309.144 77.6091C312.695 78.205 315.724 79.2881 318.232 80.8582C320.74 82.4284 322.727 84.2829 324.193 86.4217C325.736 88.5059 326.786 90.7101 327.342 93.0342C327.964 95.3694 328.104 97.5561 327.762 99.5942C327.177 103.079 325.898 105.467 323.923 106.758C322.015 108.06 319.811 108.501 317.313 108.082L291.277 103.712C290.968 105.958 291.332 108.013 292.371 109.878C293.476 111.753 294.971 113.322 296.854 114.585C298.815 115.793 300.88 116.579 303.049 116.943C304.693 117.219 306.156 117.363 307.438 117.375C308.786 117.399 309.943 117.356 310.907 117.248C311.883 117.074 312.727 116.877 313.44 116.659C314.218 116.451 314.925 116.266 315.561 116.102C316.197 115.939 316.783 115.868 317.32 115.891C318.055 115.946 318.75 116.232 319.407 116.748C320.064 117.264 320.54 118.053 320.835 119.117C321.119 119.841 321.277 120.509 321.309 121.123C321.418 121.682 321.429 122.225 321.34 122.751C321.12 124.066 320.121 125.182 318.344 126.101C316.579 126.954 314.189 127.499 311.175 127.737C308.215 128.051 304.796 127.883 300.917 127.232ZM292.452 96.7096L312.67 100.103C313.787 100.291 314.67 100.27 315.316 100.04C315.974 99.7451 316.403 99.0058 316.601 97.8223C316.855 96.3101 316.621 94.8851 315.899 93.5471C315.189 92.1435 314.099 90.9805 312.632 90.0581C311.175 89.0701 309.395 88.3995 307.291 88.0463C304.858 87.638 302.573 87.7614 300.435 88.4166C298.308 89.006 296.515 90.0232 295.056 91.4682C293.662 92.9243 292.794 94.6714 292.452 96.7096Z" fill="#CE521C"/>
<defs>
<linearGradient id="paint0_linear_2_33" x1="203.5" y1="-2.98023e-08" x2="203" y2="89.5" gradientUnits="userSpaceOnUse">
<stop stop-color="#FFF8E4"/>
<stop offset="1" stop-color="white" stop-opacity="0"/>
</linearGradient>
<linearGradient id="paint1_linear_2_33" x1="236.35" y1="6.72754" x2="236.35" y2="99.5015" gradientUnits="userSpaceOnUse">
<stop stop-color="#FFD5B7" stop-opacity="0.3"/>
<stop offset="1" stop-color="white" stop-opacity="0"/>
</linearGradient>
</defs>
</svg>
