<svg width="224" height="248" viewBox="0 0 224 248" fill="none" xmlns="http://www.w3.org/2000/svg">
<path d="M6.16113 100.724V213.361C6.16113 217.907 10.5014 220.776 14.0286 218.548L57.4544 191.055C59.115 189.997 60.1456 188.024 60.1456 185.868V73.231C60.1456 68.6844 55.8053 65.8161 52.2781 68.0437L8.85231 95.5367C7.19178 96.5945 6.16113 98.5677 6.16113 100.724Z" fill="#003366"/>
<path d="M10.032 103.704V216.341C10.032 220.888 14.3723 223.756 17.8995 221.528L61.3253 194.035C62.9858 192.978 64.0165 191.004 64.0165 188.848V76.2111C64.0165 71.6645 59.6762 68.7962 56.149 71.0238L12.7232 98.5168C11.0626 99.5746 10.032 101.548 10.032 103.704Z" fill="#65CEE0"/>
<path d="M53.2744 67.6266C53.2744 67.6266 57.0649 65.5517 61.806 71.2781C61.806 71.2781 58.989 69.2947 56.4581 70.7186L53.2629 67.6266H53.2744Z" fill="#003366"/>
<path d="M53.5261 159.128C53.5261 159.128 48.2697 147.959 53.5261 145.315C58.7826 142.67 62.9053 141.867 66.3295 149.17C68.8718 154.591 71.666 160.674 72.9371 163.46C73.2349 164.122 74.2427 164.213 74.7008 163.623L88.9127 144.878C89.0959 144.633 89.4051 144.491 89.7257 144.481C91.7985 144.461 99.1965 144.796 98.7957 150.39C98.4751 154.978 85.0763 170.906 78.2166 180.66C75.9377 183.905 68.093 184.891 65.6881 181.738C65.6537 181.698 65.6309 181.657 65.608 181.616L53.5261 159.138V159.128Z" fill="#F4CAAE"/>
<path d="M48.4188 152.76C47.9836 150.726 48.121 148.61 48.9341 146.668C49.4265 145.478 50.1366 144.359 51.1215 143.799C53.6409 142.375 61.1877 140.148 63.6957 143.596C66.2151 147.044 69.8683 154.764 71.4716 154.967C73.0748 155.171 75.3537 156.595 73.5328 159.433C71.712 162.27 66.9022 163.491 66.215 162.077C65.5279 160.653 68.2765 166.339 64.1538 167.763C60.0425 169.187 55.6908 168.17 55.6908 165.932C55.6908 163.694 52.7132 169.584 50.6633 168.373C48.6134 167.163 45.1778 164.518 47.9149 162.484C49.8617 161.05 49.0487 155.73 48.4073 152.76H48.4188Z" fill="#E27F7F"/>
<path d="M55.4272 134.279C55.4272 133.669 53.5948 122.704 64.3482 120.67C75.1016 118.636 77.3805 121.89 78.5257 128.39C79.6709 134.889 85.3854 136.313 83.5531 143.22C81.7208 150.126 70.0627 150.736 63.203 146.271C56.3433 141.806 55.4272 134.289 55.4272 134.289V134.279Z" fill="#F4CAAE"/>
<path d="M122.513 166.085C122.513 166.085 127.094 165.81 129.934 165.23C132.774 164.651 133.736 163.389 136.404 161.66C139.073 159.931 140.321 156.808 137.275 157.449C134.228 158.09 131.469 160.246 130.701 160.053C129.934 159.86 129.602 157.581 128.56 157.276C127.518 156.971 119.558 156.981 118.345 159.504C117.119 162.026 117.566 166.654 122.525 166.085H122.513Z" fill="#F4CAAE"/>
<path d="M113.363 155.252C113.363 155.252 117.726 153.055 119.936 151.54C122.147 150.024 123.624 148.519 125.17 149.577C126.716 150.645 132.408 156.259 129.178 160.043C125.937 163.827 117.806 165.841 117.806 165.841C117.806 165.841 110.454 163.593 113.363 155.252Z" fill="#F4CAAE"/>
<path d="M123.921 149.027C123.921 149.027 132.316 142.833 133.53 142.111C134.743 141.389 137.366 142.111 136.954 143.27C136.541 144.43 126.807 151.743 126.303 151.814C125.8 151.886 122.971 151.743 123.921 149.027Z" fill="#F4CAAE"/>
<path d="M126.326 152.435C126.326 152.435 135.545 145.63 136.874 144.837C138.202 144.043 141.088 144.837 140.641 146.108C140.195 147.39 129.499 155.415 128.938 155.496C128.376 155.578 125.284 155.425 126.326 152.435Z" fill="#F4CAAE"/>
<path d="M126.327 154.754C126.327 154.754 135.706 148.132 137.057 147.359C138.408 146.586 141.271 147.431 140.79 148.702C140.309 149.973 129.419 157.795 128.858 157.856C128.296 157.917 125.204 157.714 126.315 154.754H126.327Z" fill="#F4CAAE"/>
<path d="M125.456 158.578C125.456 158.578 133.976 152.567 135.202 151.865C136.427 151.163 139.027 151.936 138.592 153.086C138.156 154.235 128.262 161.345 127.758 161.406C127.254 161.467 124.437 161.274 125.456 158.588V158.578Z" fill="#F4CAAE"/>
<path d="M87.0463 148.183C87.0463 148.183 87.3555 144.115 88.0083 141.592C88.661 139.07 90.0811 138.215 92.0279 135.845C93.9747 133.475 97.4905 132.367 96.769 135.072C96.0476 137.778 93.6197 140.229 93.8373 140.911C94.0548 141.592 96.6202 141.887 96.9638 142.813C97.3073 143.738 97.2958 150.807 94.4557 151.886C91.6156 152.964 86.405 152.577 87.0463 148.173V148.183Z" fill="#F4CAAE"/>
<path d="M86.5996 146.932C86.5996 146.932 90.9628 144.735 93.173 143.22C95.3832 141.704 96.8605 140.199 98.4065 141.256C99.9525 142.314 105.644 147.939 102.415 151.723C99.1738 155.506 91.043 157.52 91.043 157.52C91.043 157.52 83.6908 155.273 86.5996 146.932Z" fill="#F4CAAE"/>
<path d="M97.1699 140.697C97.1699 140.697 105.564 134.503 106.778 133.781C107.992 133.058 110.614 133.781 110.202 134.94C109.79 136.1 100.056 143.413 99.5518 143.484C99.0479 143.555 96.2194 143.413 97.1699 140.697Z" fill="#F4CAAE"/>
<path d="M99.5633 144.104C99.5633 144.104 108.782 137.3 110.111 136.507C111.439 135.713 114.325 136.507 113.878 137.778C113.432 139.06 102.736 147.085 102.174 147.166C101.613 147.247 98.5212 147.095 99.5633 144.104Z" fill="#F4CAAE"/>
<path d="M99.5631 146.424C99.5631 146.424 108.942 139.802 110.294 139.029C111.645 138.256 114.508 139.1 114.027 140.372C113.546 141.643 102.655 149.465 102.094 149.526C101.533 149.587 98.4408 149.383 99.5516 146.424H99.5631Z" fill="#F4CAAE"/>
<path d="M98.7046 150.248C98.7046 150.248 107.225 144.237 108.45 143.535C109.676 142.833 112.275 143.606 111.84 144.755C111.405 145.905 101.51 153.015 101.006 153.076C100.503 153.137 97.6854 152.943 98.7046 150.258V150.248Z" fill="#F4CAAE"/>
<path d="M93.9407 141.114C93.9407 141.114 95.7386 140.85 96.3341 143.24C96.9296 145.63 96.8723 146.942 96.8723 146.942" stroke="#F78161" stroke-width="2.40018" stroke-miterlimit="10" stroke-linecap="round"/>
<path d="M87.4929 155.181C87.4929 155.181 70.1891 142.63 65.1617 143.443C60.1342 144.257 54.1792 142.63 52.3583 150.35C50.5375 158.07 50.755 190.567 50.755 190.567L44.8115 213.32C44.8115 213.32 54.6487 247.038 92.8409 218.802L94.9023 215.354C94.9023 215.354 89.4168 181.026 89.1878 174.527C88.9588 168.027 87.5044 155.191 87.5044 155.191L87.4929 155.181Z" fill="#FBA7A6"/>
<path d="M77.8616 169.543C77.8616 169.543 72.6051 158.375 77.8616 155.73C83.118 153.086 87.2408 152.282 90.6649 159.585C93.2073 165.007 96.0014 171.089 97.2726 173.876C97.5703 174.537 98.5781 174.629 99.0362 174.039L113.248 155.293C113.431 155.049 113.741 154.906 114.061 154.896C116.134 154.876 123.532 155.212 123.131 160.806C122.811 165.393 109.412 181.321 102.552 191.076C100.273 194.32 92.4285 195.307 90.0235 192.154C89.9892 192.113 89.9663 192.072 89.9434 192.032L77.8616 169.553V169.543Z" fill="#F4CAAE"/>
<path d="M72.7543 163.166C72.3191 161.131 72.4565 159.016 73.2695 157.073C73.762 155.883 74.472 154.764 75.4569 154.205C77.9763 152.781 85.5231 150.553 88.0311 154.001C90.5505 157.449 94.2038 165.169 95.807 165.373C97.4103 165.576 99.6892 167 97.8683 169.838C96.036 172.686 91.2376 173.896 90.5505 172.482C89.8634 171.069 92.6119 176.744 88.4892 178.168C84.378 179.592 80.0262 178.575 80.0262 176.337C80.0262 174.1 77.0487 179.989 74.9988 178.778C72.9489 177.568 69.5133 174.924 72.2503 172.889C74.1971 171.455 73.3841 166.136 72.7428 163.166H72.7543Z" fill="#E27F7F"/>
<path d="M54.9925 120.182C54.9925 120.182 57.741 108.81 67.3377 110.031C76.9344 111.251 79.2248 117.547 77.862 118.564C76.4877 119.582 79.2362 119.785 79.4653 122.012C79.6943 124.24 80.1524 127.495 77.1749 127.495C74.1974 127.495 71.6894 130.343 71.6894 131.553C71.6894 132.764 73.5217 135.611 72.8346 136.629C72.1474 137.646 70.5442 137.646 68.7233 136.222C66.9025 134.798 63.4669 139.67 66.433 141.908C69.4105 144.145 71.4604 142.111 73.0637 142.925C74.6669 143.738 79.6944 153.076 73.0637 154.5C66.433 155.924 64.1426 153.889 62.9974 155.924C61.8522 157.958 57.0538 163.44 53.3892 159.372C49.7246 155.313 45.1552 154.703 44.2391 155.11C43.3229 155.517 32.81 152.262 39.8988 147.186C46.9875 142.111 49.9651 143.738 49.9651 141.704C49.9651 139.67 46.3004 137.239 45.6247 132.357C44.9491 127.474 45.3958 123.416 55.0039 120.171L54.9925 120.182Z" fill="#003366"/>
<path d="M75.3589 129.066L75.3485 129.071C74.6602 129.341 74.3492 130.056 74.6538 130.667L76.8689 135.113C77.1735 135.725 77.9783 136.001 78.6665 135.73L78.677 135.726C79.3653 135.456 79.6763 134.741 79.3717 134.13L77.1566 129.684C76.852 129.072 76.0472 128.796 75.3589 129.066Z" fill="#003366"/>
<path d="M82.3049 140.29C82.3049 140.29 80.9421 141.44 79.7969 141.134" stroke="#003366" stroke-width="3.60026" stroke-miterlimit="10" stroke-linecap="round"/>
<path d="M125.994 147.705C125.994 147.705 120.967 150.146 119.135 149.943C117.302 149.739 113.557 152.821 113.031 155.852C112.504 158.883 115.94 160.918 119.135 159.697C122.33 158.477 125.765 148.936 125.994 147.715V147.705Z" fill="#F4CAAE"/>
<path d="M216.785 23.2492L172.329 1.1063C169.557 -0.276999 166.511 -0.246472 163.969 0.770657L163.912 0.740145C163.912 0.740145 155.666 4.51371 154.761 5.29689C154.761 5.29689 156.662 3.90342 159.846 3.95428C158.976 5.19517 158.449 6.67001 158.449 8.30759L158.231 114.059C158.231 116.998 159.983 119.724 162.835 121.209L209.971 145.742C211.082 146.322 212.25 146.668 213.407 146.81C212.605 148.254 211.529 149.485 210.12 150.075C210.12 150.075 219.373 145.915 219.889 145.508C219.912 145.488 219.934 145.457 219.946 145.427C222.339 143.972 224 141.552 224 138.602V34.1935C224 29.6571 221.24 25.4767 216.785 23.2492Z" fill="#003366"/>
<path d="M150.49 12.193L150.272 117.944C150.272 120.883 152.024 123.609 154.876 125.094L202.012 149.627C208.219 152.862 216.041 148.885 216.041 142.487V38.7502C216.041 33.7968 213.029 29.2299 208.162 26.8091L164.358 4.99169C158.151 1.89962 150.501 5.87661 150.49 12.193Z" fill="#65CEE0"/>
<path d="M208.769 150.736C206.616 151.265 204.211 151.082 202.012 149.933L183.884 140.494L178.02 137.442C179.75 135.551 181.57 133.893 183.46 132.692C184.353 132.133 185.246 131.665 186.163 131.329C196.813 127.403 200.191 128.563 200.191 128.563C200.191 128.563 203.215 129.712 205.642 134.238C206.982 136.73 208.139 140.25 208.505 145.173C208.517 145.366 208.528 145.549 208.551 145.742C208.677 147.563 208.757 149.221 208.803 150.726L208.769 150.736Z" fill="#003366"/>
<path d="M172.649 81.5104C172.649 81.5104 166.843 82.5072 162.995 86.9826C159.147 91.458 151.738 99.6153 151.738 99.6153L149.963 100.663L162.697 107.244C162.697 107.244 178.329 94.3161 178.364 92.4954C178.398 90.6748 182.303 85.2535 172.649 81.5104Z" fill="#F23E30"/>
<path d="M209.617 106.99C209.628 118.636 208.185 130.923 208.185 130.923C207.933 132.123 206.96 133.242 205.62 134.238C202.78 136.354 198.279 137.971 195.324 138.877C193.584 139.416 192.381 139.7 192.381 139.7C189.152 140.25 186.335 140.494 183.884 140.494L178.021 137.442L174.436 135.581C173.554 136.181 172.684 136.771 171.825 137.351C170.016 136.039 168.882 134.503 168.149 133.089C168.149 133.089 168.149 133.089 168.149 133.079C168.149 133.069 168.137 133.048 168.126 133.038C167.954 132.703 167.805 132.377 167.68 132.072C166.981 130.404 166.798 129.082 166.557 128.807C166.431 128.654 166.34 127.79 166.282 126.427C166.248 125.674 166.225 124.769 166.214 123.742C166.156 119.337 166.248 112.736 166.385 106.664V106.572C166.385 106.572 166.385 106.532 166.385 106.511C166.397 105.911 166.408 105.321 166.431 104.731C166.431 104.701 166.431 104.66 166.431 104.63C166.431 104.457 166.431 104.284 166.443 104.111C166.58 98.6287 166.74 93.9296 166.843 92.2106C167.13 87.1962 169.1 84.9382 169.1 84.9382C170.119 83.5345 171.401 82.436 172.821 81.5816C173.245 81.3274 173.68 81.0934 174.127 80.8798C175.868 80.0458 177.769 79.5169 179.624 79.2016C179.99 79.1405 180.345 79.0795 180.7 79.0388C186.026 78.3268 190.824 79.1812 190.824 79.1812C190.824 79.1812 191.855 79.2829 193.435 79.6796C193.836 79.7813 194.259 79.8932 194.718 80.0356C195.015 80.1271 195.324 80.2187 195.634 80.3306C195.737 80.3611 195.851 80.4017 195.954 80.4424C199.31 81.6426 203.604 83.921 206.616 88.2031C207.063 88.8439 207.452 89.6475 207.784 90.6036C209.147 94.4687 209.594 100.643 209.594 107.01L209.617 106.99Z" fill="#FC624E"/>
<path d="M173.829 69.081C173.829 69.081 170.955 68.4504 171.401 71.6341C171.848 74.8177 172.879 77.0655 174.047 76.4451C175.226 75.8246 174.402 71.1255 173.829 69.0912V69.081Z" fill="#F78161"/>
<path d="M172.123 68.8065C172.123 68.8065 173.531 70.5661 173.257 72.0613C172.982 73.5565 173.257 76.0688 174.665 75.3161C176.074 74.5634 176.062 73.8311 176.062 73.8311C176.062 73.8311 178.524 68.542 177.024 67.2909C175.512 66.0399 172.123 67.0367 172.123 68.7963V68.8065Z" fill="#003366"/>
<path d="M178.65 87.3996C178.65 87.3996 175.982 94.4381 181.742 94.5907C187.502 94.7535 194.282 90.4917 195.118 86.7283C195.965 82.9649 196.252 75.9467 196.252 75.9467C196.252 75.9467 177.413 71.268 178.65 87.3996Z" fill="#F4CAAE"/>
<g style="mix-blend-mode:multiply" opacity="0.58">
<path d="M178.65 87.3996C178.65 87.3996 180.024 95.6281 189.335 89.1083C189.335 89.1083 195.233 83.7074 196.092 78.6319L177.482 85.8434L178.65 87.3894V87.3996Z" fill="#F78161"/>
</g>
<path d="M176.497 59.398C176.497 59.398 173.107 63.6598 173.955 68.6742C174.802 73.6887 171.516 86.0976 179.039 87.4708C187.228 88.9761 192.587 85.467 195.691 77.9403C198.794 70.4237 198.233 59.3878 192.587 57.3841C186.941 55.3804 180.448 55.1261 176.497 59.3878V59.398Z" fill="#F4CAAE"/>
<path d="M193.927 70.261C193.927 70.261 195.118 71.685 194.843 73.1903C194.569 74.6957 195.233 76.6791 196.023 75.5602C196.813 74.4414 196.137 78.2048 196.137 78.2048C196.137 78.2048 202.184 77.1978 202.459 71.4307C202.745 65.6636 202.745 59.6523 200.764 59.3981C198.783 59.1438 191.03 60.3135 193.927 70.261Z" fill="#003366"/>
<path d="M192.164 69.8032C192.164 69.8032 193.572 71.5629 193.297 73.058C193.011 74.5634 193.297 77.0655 194.706 76.3128C196.114 75.5602 196.103 74.8278 196.103 74.8278C196.103 74.8278 198.565 69.5388 197.065 68.2877C195.565 67.0366 192.164 68.0334 192.164 69.7931V69.8032Z" fill="#003366"/>
<path d="M196.252 73.943C196.252 73.943 197.947 67.4232 200.764 70.4339C203.581 73.4446 196.813 80.2085 195.405 78.459C193.996 76.7096 195.966 75.2042 195.966 75.2042L196.252 73.9531V73.943Z" fill="#F4CAAE"/>
<path d="M173.268 106.562V134.137L146.264 148.285L118.516 134.004V106.562L145.966 92.8514L173.268 106.562Z" fill="#FBA7A6"/>
<path d="M173.268 106.644V134.116L146.264 148.275L118.516 133.984V106.562L145.806 120.741L173.268 106.644Z" fill="#E08686"/>
<path d="M173.268 106.786V134.066L146.459 148.122L146.001 120.782L173.268 106.786Z" fill="#D86161"/>
<path d="M118.653 106.603L145.886 120.751L173.291 106.684L146.046 92.9022L118.653 106.603Z" fill="#FBA7A6"/>
<path d="M124.723 137.046L125.284 110.041L152.677 96.1774L163.385 101.446L136.576 115.737L135.728 142.813L124.723 137.046Z" fill="#FFDCDC"/>
<path d="M125.284 110.041L136.622 115.666L135.728 142.558L124.723 137.046L125.284 110.041Z" fill="#E2BABA"/>
<path d="M178.33 72.6919C178.33 71.928 177.635 71.3087 176.778 71.3087C175.921 71.3087 175.226 71.928 175.226 72.6919V76.4451C175.226 77.2091 175.921 77.8285 176.778 77.8285C177.635 77.8285 178.33 77.2091 178.33 76.4451V72.6919Z" fill="#003366"/>
<path d="M187.079 73.1903C187.079 72.4263 186.384 71.807 185.527 71.807C184.67 71.807 183.975 72.4263 183.975 73.1903V76.9435C183.975 77.7075 184.67 78.3268 185.527 78.3268C186.384 78.3268 187.079 77.7075 187.079 76.9435V73.1903Z" fill="#003366"/>
<g style="mix-blend-mode:multiply" opacity="0.58">
<path d="M174.241 72.4986C174.241 72.4986 171.527 76.3129 179.395 77.3605C189.782 78.7438 193.16 70.2101 193.16 70.2101L174.241 72.4986Z" fill="#F78161"/>
</g>
<path d="M180.025 75.072L179.463 80.829L182.006 81.0833" stroke="#003366" stroke-width="1.20009" stroke-miterlimit="10"/>
<path d="M178.478 83.2192C178.478 83.2192 179.887 85.9757 183.277 84.4703L186.666 82.965L178.478 83.2192Z" fill="#003366"/>
<path d="M202.894 63.4767C202.745 63.7818 202.551 64.0869 202.31 64.3819C201.337 62.8969 199.905 60.8932 197.752 58.2181C192.038 51.1185 180.173 54.4547 177.127 55.4617C182.143 51.4135 188.843 51.4135 188.843 51.4135C202.333 51.6475 204.371 60.3642 202.894 63.4868V63.4767Z" fill="#FFB4AE"/>
<path d="M203.306 61.4831C203.306 61.8493 203.272 62.1952 203.203 62.5105C203.249 62.6834 203.719 64.6057 199.023 67.1689C198.405 67.5046 197.706 67.8504 196.893 68.2064C196.847 68.2267 196.813 68.2471 196.767 68.2572C196.733 68.2776 196.687 68.2877 196.653 68.3081C196.034 68.5827 195.359 68.8472 194.614 69.1218C194.603 69.1218 192.908 70.4441 192.908 70.4441C188.236 75.0618 181.639 75.5399 171.871 71.7358C163.522 68.481 169.26 64.8499 171.836 63.5581C172.466 63.2428 172.901 63.0699 172.901 63.0699C172.901 63.0699 173.188 53.9055 180.666 50.4371C183.907 48.9318 188.43 48.3825 194.729 49.9184C194.729 49.9184 204.051 51.4644 203.318 61.4933L203.306 61.4831Z" fill="#FC624E"/>
<path d="M203.306 61.4832C203.306 61.8494 203.272 62.1952 203.203 62.5105C203.249 62.6834 203.719 64.6058 199.023 67.1689C200.993 65.7856 202.86 62.9479 200.432 57.2926C196.962 49.2166 184.662 49.9591 180.654 50.427C183.895 48.9216 188.419 48.3724 194.717 49.9083C194.717 49.9083 204.039 51.4543 203.306 61.4832Z" fill="#FFDCDC"/>
<path d="M200.661 120.222C200.661 120.222 199.172 121.24 196.756 122.908C192.965 125.512 186.884 129.682 180.62 133.954C178.513 135.398 176.383 136.842 174.31 138.246C173.428 138.846 172.558 139.436 171.699 140.016C164.496 144.888 158.507 148.855 157.487 149.312C154.67 150.574 154.945 148.305 154.945 148.305C152.116 149.312 152.483 146.963 152.483 146.963C150.708 147.797 149.734 146.403 149.322 145.569C149.322 145.569 149.322 145.569 149.322 145.559C149.322 145.549 149.311 145.539 149.299 145.518C149.162 145.223 149.093 145 149.093 145C147.478 145.702 146.184 145.051 145.909 143.799C145.623 142.548 156.915 134.279 156.915 133.771C156.915 133.262 154.933 132.265 152.677 132.265C150.421 132.265 148.727 131.767 150.135 130.007C151.051 128.868 152.929 128.146 155.22 127.851C156.445 127.698 157.785 127.658 159.159 127.749C163.11 127.993 165.721 129.427 165.721 129.427L166.156 129.082L168.057 127.566L168.172 127.475L184.697 114.323L193.034 107.691L200.65 120.222H200.661Z" fill="#F4CAAE"/>
<path d="M203.925 93.4719C203.467 93.3193 197.523 91.1528 193.95 96.0452C190.366 100.938 181.8 114.781 181.8 114.781C181.8 114.781 185.373 126.173 199.103 122.826L209.215 105.83C209.215 105.83 214.907 97.0318 203.936 93.4617L203.925 93.4719Z" fill="#F23E30"/>
<path d="M196.641 68.308C196.023 68.5826 195.347 68.8471 194.603 69.1217C194.591 69.1217 192.896 70.4439 192.896 70.4439C188.224 75.0617 181.628 75.5397 171.859 71.7357C163.511 68.4809 169.248 64.8497 171.825 63.558C173.898 65.7957 179.818 68.664 196.641 68.3181V68.308Z" fill="#F23E30"/>
<path d="M170.84 23.1781V25.8328C170.84 26.6262 171.31 27.3585 172.088 27.7653L189.472 36.7974C191.156 37.6722 193.263 36.594 193.263 34.8649V32.2102C193.263 31.4168 192.794 30.6845 192.015 30.2776L174.631 21.2455C172.947 20.3708 170.84 21.449 170.84 23.1781Z" fill="#008080"/>
<path d="M172.26 21.988V24.6427C172.26 25.436 172.73 26.1684 173.508 26.5752L190.892 35.6073C192.576 36.482 194.683 35.4039 194.683 33.6748V31.0201C194.683 30.2267 194.213 29.4944 193.435 29.0875L176.051 20.0554C174.367 19.1807 172.26 20.2589 172.26 21.988Z" fill="#003366"/>
<path d="M71.2765 238.382C71.2765 238.677 71.2535 238.962 71.2077 239.247V239.766C69.845 244.79 64.0503 246.346 59.962 246.804C59.607 246.845 59.2749 246.875 58.9542 246.906C60.3284 246.641 61.4049 246.051 62.2524 245.268C61.3248 245.146 60.3971 244.861 59.5039 244.414L54.1559 241.678C58.3473 242.268 62.5158 239.44 62.5387 235.321L62.9853 130.587C63.0082 126.01 60.2827 121.768 55.8393 119.449L13.4098 97.3064C11.0851 96.0961 8.45108 96.1774 6.36683 97.1539V95.2824C6.36683 93.3498 7.22578 91.6817 8.56565 90.451C6.34398 90.3086 4.75221 90.929 3.89331 91.3969C4.17961 91.2138 4.46591 91.0409 4.75221 90.8884C11.2455 87.1758 15.769 88.4066 15.769 88.4066C15.8491 88.4371 15.9522 88.4676 16.0667 88.5184C16.7882 88.671 17.5097 88.9253 18.2082 89.2915L21.3117 90.9087C24.3464 92.3632 27.4384 93.8889 27.4384 93.8889L27.2438 94.0008L64.0503 113.204C68.8486 115.706 71.7919 120.294 71.769 125.237L71.288 238.392L71.2765 238.382Z" fill="#65CEE0"/>
<path d="M3.89361 91.3969C3.42408 91.6512 3.18359 91.8546 3.18359 91.8546C3.42408 91.6919 3.65312 91.5495 3.89361 91.3969Z" fill="#65CEE0"/>
<path d="M55.7708 246.967C56.9847 247.109 58.0383 247.079 58.9659 246.896C57.0878 247.038 55.7708 246.967 55.7708 246.967Z" fill="#65CEE0"/>
<path d="M57.8667 115.025L12.0245 91.1122C9.55092 89.8204 6.76804 89.8916 4.52346 90.8884C2.02694 92.0072 0.194733 94.2754 0.194733 97.1132L0 210.31C0 215.69 3.22948 220.664 8.47447 223.349L53.3316 246.245C55.4273 247.313 57.7293 247.414 59.7334 246.814C62.7338 245.909 65.0814 243.427 65.0928 240.223L65.5738 127.068C65.5967 122.124 62.6536 117.537 57.8552 115.035L57.8667 115.025ZM62.3101 235.321C62.2872 239.44 58.1186 242.268 53.9272 241.678L14.418 221.508C9.16152 218.823 5.93204 213.859 5.94349 208.469L6.13823 97.1437C8.23393 96.1673 10.8565 96.0859 13.1812 97.2963L55.6106 119.439C60.0539 121.758 62.7796 126 62.7567 130.577L62.3101 235.311V235.321Z" fill="#003366"/>
<path d="M54.1562 241.678C53.3088 241.556 52.4612 241.301 51.6482 240.884L10.1234 219.698C5.25632 217.216 2.26739 212.608 2.27884 207.634L2.46211 102.87C2.46211 100.287 4.11122 98.2117 6.3558 97.1641L6.16107 208.489C6.16107 213.869 9.39054 218.843 14.6355 221.528L54.1447 241.698L54.1562 241.678Z" fill="#65CEE0"/>
<path d="M129.899 159.748C129.899 159.748 128.399 155.222 123.601 156.025" stroke="#F78161" stroke-width="2.40018" stroke-miterlimit="10" stroke-linecap="round"/>
</svg>
