<svg width="304" height="188" viewBox="0 0 304 188" fill="none" xmlns="http://www.w3.org/2000/svg">
<path d="M136.978 13.9985V125.945C136.978 130.886 139.923 135.462 144.724 137.97L185.125 159.104C195.61 164.584 208.823 157.877 208.823 147.078V34.142C208.823 29.0927 205.756 24.4417 200.798 21.9655L160.397 1.81129C149.912 -3.42104 136.978 3.30778 136.978 13.9878V13.9985Z" fill="#1C5360"/>
<path d="M130.82 16.6254V128.571C130.82 133.513 133.765 138.089 138.566 140.597L178.967 161.731C189.452 167.211 202.665 160.504 202.665 149.705V36.7689C202.665 31.7196 199.598 27.0686 194.64 24.5924L154.239 4.43818C143.754 -0.794149 130.82 5.93467 130.82 16.6147V16.6254Z" fill="#65CEE0"/>
<path d="M154.942 19.0263V21.7717C154.942 22.5899 155.427 23.3435 156.227 23.7634L174.155 33.0868C175.888 33.9912 178.058 32.8823 178.058 31.0951V28.3498C178.058 27.5315 177.573 26.7779 176.773 26.358L158.845 17.0346C157.112 16.1302 154.942 17.2391 154.942 19.0263Z" fill="#B8F8FF"/>
<path d="M156.409 17.799V20.5444C156.409 21.3626 156.894 22.1162 157.694 22.5361L175.622 31.8596C177.355 32.7639 179.525 31.655 179.525 29.8678V27.1225C179.525 26.3042 179.04 25.5506 178.24 25.1308L160.312 15.8073C158.579 14.9029 156.409 16.0119 156.409 17.799Z" fill="#1C5360"/>
<path d="M197.186 104.404L193.316 107.81C192.89 107.516 192.438 107.246 191.96 106.999L139.541 80.291C136.141 78.5609 131.967 78.5454 128.558 80.26L7.42418 140.99C6.40676 141.499 5.52845 142.125 4.7893 142.82L6.22414 134.61C6.22414 134.61 -6.22839 146.828 4.09364 155.61C4.88496 156.514 5.86758 157.317 7.06762 157.973L59.2691 186.535C62.7562 188.442 67.1302 188.489 70.6694 186.666L192.029 124.083C193.49 123.326 194.655 122.353 195.542 121.241C200.821 114.931 197.212 104.404 197.212 104.404H197.186Z" fill="#1C5360"/>
<path d="M140.35 72.7065L192.768 99.4142C200.186 103.191 200.212 112.683 192.821 116.498L75.226 177.135C69.3737 180.155 62.1214 180.07 56.356 176.919L7.85898 150.389C0.658776 146.45 0.858713 137.097 8.22414 133.397L129.358 72.6679C132.767 70.961 136.941 70.9687 140.341 72.6987L140.35 72.7065Z" fill="#7BDEEF"/>
<path d="M190.429 80.1596L188.36 110.327C188.212 112.436 186.89 114.344 184.829 115.402L137.184 139.839C136.184 140.356 135.071 140.634 133.949 140.681C132.619 140.735 131.271 140.449 130.08 139.839L96.6615 122.6C94.8006 121.642 93.5309 119.982 93.2091 118.089L88.6438 91.0806L112.645 76.9158L137.167 62.442L190.447 80.1673L190.429 80.1596Z" fill="#F23E30"/>
<path d="M133.949 140.673C132.619 140.727 131.271 140.441 130.08 139.831L96.6615 122.592C94.8006 121.634 93.5309 119.974 93.2091 118.082L88.6438 91.0728L112.645 76.908L130.41 85.481L133.958 140.681L133.949 140.673Z" fill="#F77A74"/>
<path d="M192.586 75.1162C192.664 75.8886 192.334 77.0934 191.916 78.2906C191.151 76.8154 189.864 75.5101 188.064 74.6065L147.619 54.2707C144.75 52.8264 141.237 52.8418 138.384 54.317L88.8091 79.8584C87.2873 80.6462 86.1395 81.7198 85.3656 82.9401C84.9655 81.9283 84.6351 80.847 84.4611 79.7889C84.4611 79.7889 80.6958 86.8868 87.0438 93.0733L87.4525 93.2895C87.8612 93.5907 88.3134 93.8765 88.7917 94.1236L128.932 114.846C131.828 116.336 135.402 116.336 138.289 114.83L188.168 88.9026C188.629 88.6631 189.064 88.3928 189.455 88.0994L189.612 88.0144C195.403 83.7279 192.568 75.1162 192.568 75.1162H192.586Z" fill="#B52E24"/>
<path d="M88.8006 88.7945L128.941 109.516C131.837 111.007 135.411 111.007 138.298 109.501L188.177 83.5734C194.36 80.3604 194.291 72.413 188.064 69.2773L147.62 48.9414C144.75 47.4972 141.237 47.5126 138.385 48.9878L88.8093 74.5292C82.644 77.7036 82.644 85.6124 88.8093 88.7945H88.8006Z" fill="#FC624E"/>
<path d="M178.951 82.5771L155.698 94.6643L138.802 103.446C136.48 104.651 133.602 104.658 131.271 103.454L98.9575 86.7786C94.0008 84.2222 94.0008 77.8503 98.9575 75.2939L138.863 54.734C139.967 54.1625 141.202 53.869 142.437 53.8381C143.767 53.8072 145.098 54.093 146.298 54.6954L178.855 71.0691C183.873 73.587 183.925 79.9897 178.951 82.5771Z" fill="#661A1A"/>
<path d="M178.951 82.5771L155.698 94.6643L152.82 95.6992L142.446 89.9684V53.8381C143.776 53.8072 145.106 54.093 146.306 54.6954L178.864 71.0691C183.881 73.587 183.934 79.9897 178.96 82.5771H178.951Z" fill="#B54343"/>
<path d="M176.072 99.1593L180.255 97.0971C181.151 96.6569 182.246 97.2284 182.246 98.132V113.038C182.246 113.455 182.003 113.842 181.603 114.058L177.42 116.298C176.525 116.776 175.394 116.205 175.394 115.278V100.194C175.394 99.7617 175.655 99.3678 176.081 99.1593H176.072Z" fill="#661A1A"/>
<path d="M164.098 105.16L168.281 103.098C169.177 102.658 170.272 103.23 170.272 104.133V119.039C170.272 119.456 170.029 119.843 169.629 120.059L165.446 122.299C164.55 122.778 163.42 122.206 163.42 121.279V106.195C163.42 105.763 163.681 105.369 164.107 105.16H164.098Z" fill="#661A1A"/>
<path d="M151.202 112.112L155.385 110.049C156.281 109.609 157.376 110.181 157.376 111.084V125.991C157.376 126.408 157.133 126.794 156.733 127.01L152.55 129.25C151.654 129.729 150.524 129.157 150.524 128.23V113.146C150.524 112.714 150.785 112.32 151.211 112.112H151.202Z" fill="#661A1A"/>
<path d="M173.924 100.109L178.107 98.0471C179.003 97.6069 180.098 98.1784 180.098 99.0821V113.988C180.098 114.405 179.855 114.792 179.455 115.008L175.272 117.248C174.377 117.726 173.246 117.155 173.246 116.228V101.144C173.246 100.712 173.507 100.318 173.933 100.109H173.924Z" fill="#AD211A"/>
<path d="M161.95 106.11L166.133 104.048C167.029 103.608 168.124 104.18 168.124 105.083V119.989C168.124 120.407 167.881 120.793 167.481 121.009L163.298 123.249C162.403 123.728 161.272 123.156 161.272 122.229V107.145C161.272 106.713 161.533 106.319 161.959 106.11H161.95Z" fill="#AD211A"/>
<path d="M149.054 113.069L153.237 111.007C154.133 110.567 155.228 111.138 155.228 112.042V126.948C155.228 127.365 154.985 127.752 154.585 127.968L150.402 130.208C149.506 130.686 148.376 130.115 148.376 129.188V114.104C148.376 113.672 148.637 113.278 149.063 113.069H149.054Z" fill="#AD211A"/>
<path d="M153.445 83.8359C152.385 84.3611 151.245 84.8245 150.063 85.2493C147.819 86.2997 145.315 86.9948 142.637 87.2574C142.437 87.296 142.236 87.3347 142.045 87.381C136.61 88.4546 131.741 86.7322 127.914 83.8823C127.74 83.7741 127.575 83.6583 127.41 83.5502C127.323 83.4961 127.245 83.4343 127.166 83.3803C127.001 83.2644 126.836 83.1408 126.68 83.0172C126.601 82.9555 126.523 82.9014 126.453 82.8396C126.375 82.7778 126.297 82.716 126.219 82.6543C125.888 82.3917 125.575 82.1136 125.271 81.8278C125.201 81.7661 125.14 81.7043 125.071 81.6425C125.01 81.5884 124.958 81.5343 124.906 81.4803C124.836 81.4108 124.766 81.3412 124.697 81.2717C124.236 80.8083 123.81 80.3218 123.419 79.812C123.366 79.7502 123.323 79.6885 123.271 79.619C123.132 79.4336 122.993 79.2482 122.862 79.0551C122.819 78.9933 122.775 78.9315 122.74 78.8698C122.627 78.7076 122.523 78.5454 122.427 78.3754C122.271 78.1283 122.123 77.8734 121.992 77.6108C121.906 77.4486 121.819 77.2864 121.74 77.1165C120.914 75.7881 120.271 74.4442 119.819 73.193C118.445 69.3081 119.227 66.3578 120.697 63.7241C121.853 61.6465 123.445 59.7697 124.732 57.7848C126.114 55.6531 129.749 54.5872 133.184 54.062C133.462 54.0234 133.749 53.9771 134.019 53.9462C134.523 53.8767 135.019 53.8226 135.497 53.7763C136.062 53.7222 136.602 53.6836 137.097 53.6527C139.106 53.5292 140.541 53.56 140.541 53.56C140.541 53.56 141.55 54.0389 142.958 54.595C143.045 54.6259 143.123 54.6568 143.21 54.6954C144.61 54.8653 145.967 55.1588 147.263 55.5604C147.88 55.7535 148.48 55.962 149.063 56.2015C149.202 56.2555 149.332 56.3096 149.463 56.3713C149.863 56.3868 150.219 56.3636 150.524 56.2864C151.645 56.0084 153.124 56.4718 154.663 57.8388C154.959 58.0937 155.246 58.3872 155.541 58.7038C156.367 59.6152 157.202 60.7815 157.993 62.2412C159.098 64.2725 160.124 66.8521 160.959 70.0573C162.707 76.7767 159.115 81.0478 153.454 83.8282L153.445 83.8359Z" fill="#E26F6F"/>
<path d="M153.445 83.836C152.385 84.3612 151.245 84.8246 150.063 85.2494C147.819 86.2997 145.315 86.9948 142.637 87.2574C142.437 87.2961 142.236 87.3347 142.045 87.381C136.61 88.4546 131.741 86.7322 127.914 83.8823C127.74 83.7742 127.575 83.6583 127.41 83.5502C127.323 83.4961 127.245 83.4344 127.166 83.3803C127.001 83.2644 126.836 83.1408 126.68 83.0173C126.601 82.9555 126.523 82.9014 126.453 82.8396C126.375 82.7779 126.297 82.7161 126.219 82.6543C125.888 82.3917 125.575 82.1136 125.271 81.8279C125.201 81.7661 125.14 81.7043 125.071 81.6425C125.01 81.5885 124.958 81.5344 124.906 81.4803C124.836 81.4108 124.766 81.3413 124.697 81.2718C124.236 80.8084 123.81 80.3218 123.419 79.8121C123.366 79.7503 123.323 79.6885 123.271 79.619C123.132 79.4336 122.993 79.2482 122.862 79.0551C122.819 78.9934 122.775 78.9316 122.74 78.8698C122.627 78.7076 122.523 78.5454 122.427 78.3755C122.271 78.1283 122.123 77.8735 121.992 77.6109C121.906 77.4487 121.819 77.2865 121.74 77.1165C120.914 75.7881 120.271 74.4443 119.819 73.1931C118.445 69.3082 119.227 66.3578 120.697 63.7241C120.801 64.5196 121.001 65.6395 121.384 66.9371C121.61 67.7017 121.897 68.5358 122.262 69.4008C122.332 69.563 122.401 69.7252 122.479 69.8874C122.81 70.6134 123.192 71.3549 123.645 72.104C127.271 78.1283 135.202 84.5388 152.524 83.4189C152.524 83.4189 152.88 83.5734 153.463 83.8282L153.445 83.836Z" fill="#C13333"/>
<path d="M154.654 57.8465C154.376 58.2482 154.072 58.6652 153.82 59.0051C153.611 59.2831 153.437 59.4994 153.35 59.6229C153.306 59.677 153.28 59.7156 153.28 59.7156L152.359 59.2599L152.115 59.1363L147.889 57.051L147.75 56.9815C147.672 56.9506 145.689 56.7421 142.889 56.7961C141.715 56.8193 140.402 56.8811 139.019 57.0279C138.81 57.051 138.602 57.0742 138.384 57.0973C136.923 57.275 135.41 57.5376 133.923 57.9315C133.549 58.0319 133.184 58.1323 132.819 58.2481C132.81 58.2481 132.801 58.2481 132.793 58.2559C131.628 58.6189 130.497 59.0668 129.445 59.6229C128.593 60.0709 127.801 60.5884 127.08 61.1831C126.819 61.3916 126.575 61.6156 126.332 61.855C124.41 63.7473 123.219 66.3346 123.366 69.8488C123.393 70.567 123.48 71.3317 123.627 72.1272C123.906 73.6487 124.41 75.3247 125.175 77.1629C125.175 77.1629 124.019 77.4332 122.323 77.5954C122.21 77.6031 122.097 77.6186 121.975 77.6263C121.888 77.4641 121.801 77.3019 121.723 77.132C120.897 75.8035 120.253 74.4596 119.801 73.2084C118.427 69.3236 119.21 66.3732 120.679 63.7395C121.836 61.6619 123.427 59.7851 124.714 57.8002C126.097 55.6685 129.732 54.6027 133.167 54.0775C133.445 54.0389 133.732 53.9925 134.002 53.9616C134.506 53.8921 135.002 53.8381 135.48 53.7917C136.045 53.7377 136.584 53.699 137.08 53.6681C139.089 53.5446 140.523 53.5755 140.523 53.5755C140.523 53.5755 141.532 54.0543 142.941 54.6104C143.028 54.6413 143.106 54.6722 143.193 54.7108C144.593 54.8807 145.95 55.1742 147.245 55.5758C147.863 55.7689 148.463 55.9774 149.045 56.2169C149.185 56.2709 149.315 56.325 149.445 56.3868C149.845 56.4022 150.202 56.3791 150.506 56.3019C151.628 56.0238 153.106 56.4872 154.646 57.8543L154.654 57.8465Z" fill="#C13333"/>
<path d="M140.993 65.0216C140.993 65.0216 140.949 65.068 140.871 65.1529C140.654 65.1529 140.532 65.1529 140.532 65.1529L140.993 65.0139V65.0216Z" fill="#499FAD"/>
<g opacity="0.29">
<path d="M156.22 64.3886C151.237 66.5975 150.941 67.6788 153.046 68.3971C155.15 69.1154 157.472 72.5755 154.341 74.6763C153.42 75.2942 152.141 75.8889 150.776 76.3368C148.611 77.0474 146.22 77.3872 144.689 76.8234C143.889 76.5299 143.332 75.997 143.159 75.1474C143.132 75.0007 143.098 74.8539 143.072 74.7304C142.402 71.8186 141.724 73.8499 138.541 75.2633C135.219 76.7384 127.358 79.4262 128.767 74.1666C128.889 73.7186 128.915 73.3169 128.862 72.9771C128.41 69.9418 122.028 70.5211 121.193 68.4435C121.01 67.9878 121.088 67.4085 121.558 66.6362C124.393 61.9249 128.097 60.4729 130.01 61.7936C130.089 61.8476 130.158 61.894 130.21 61.9249C131.541 62.7049 127.219 57.955 130.28 56.14C130.497 56.0087 130.715 55.8774 130.932 55.7461C133.88 53.9311 136.602 51.9539 138.35 54.9738C139.228 56.4953 139.219 58.6424 138.967 60.496C138.698 62.4887 138.132 64.1415 138.08 64.3037C138.228 64.0797 140.611 60.4728 142.698 60.5115C144.846 60.5501 145.385 58.1867 148.15 58.1867C149.811 58.1867 154.168 59.6233 156.324 61.2452C157.768 62.3342 158.22 63.5082 156.22 64.3886Z" fill="#C13333"/>
<path d="M156.315 61.2448C156.037 61.2912 155.733 61.3221 155.411 61.3375C152.802 61.4765 138.071 64.3111 138.071 64.3111C137.958 62.2335 138.367 61.129 138.967 60.488C138.689 62.5424 138.097 64.2338 138.071 64.3033C138.15 64.1875 140.576 60.4648 142.689 60.5034C144.837 60.542 145.376 58.1786 148.141 58.1786C149.802 58.1786 154.159 59.6152 156.315 61.2371V61.2448Z" fill="#C13333"/>
<path d="M138.967 60.4879C138.697 62.4806 138.132 64.1334 138.08 64.2956V64.3033C138.08 64.3033 134.697 60.3798 133.001 58.4721C131.706 57.0047 131.132 56.4254 130.94 55.738C133.888 53.923 136.61 51.9458 138.358 54.9656C139.236 56.4872 139.228 58.6343 138.975 60.4879H138.967Z" fill="#C13333"/>
<path d="M150.767 76.3365C148.602 77.047 146.21 77.3868 144.68 76.823L143.063 74.7222C142.393 71.8105 141.715 73.8418 138.532 75.2552C135.21 76.7303 127.349 79.4181 128.758 74.1584C128.88 73.7105 128.906 73.3088 128.854 72.969C129.158 72.8686 129.514 72.7682 129.923 72.6601C133.584 71.6947 136.41 68.9219 137.019 68.2886C138.715 68.2731 146.289 68.3272 148.193 70.7524C150.019 73.0694 150.628 74.7917 150.767 76.3441V76.3365Z" fill="#C13333"/>
<path d="M137.019 68.2886C137.019 68.2886 151.88 66.6589 156.489 73.61C156.489 73.61 152.863 77.2787 150.759 75.649C148.654 74.0194 151.019 69.3698 137.019 68.2886Z" fill="#C13333"/>
</g>
<path d="M146.68 74.7068L143.611 75.1162C143.611 75.1162 146.219 79.8893 146.219 80.9783C146.219 82.0673 153.133 81.3876 153.133 81.3876C153.133 81.3876 155.585 77.9816 146.68 74.7068Z" fill="#FCA2A2"/>
<path d="M149.306 76.7458L147.759 76.9543C147.759 76.9543 149.08 79.364 149.08 79.9201C149.08 80.4762 152.576 80.1287 152.576 80.1287C152.576 80.1287 153.82 78.4063 149.315 76.7535L149.306 76.7458Z" fill="#FFDCDC"/>
<path d="M147.254 55.5681C147.237 55.7612 147.228 55.8616 147.228 55.8616C147.228 55.8616 145.506 55.5682 142.967 55.5295C141.715 55.5141 140.254 55.5604 138.715 55.738C138.28 55.7921 137.828 55.8539 137.376 55.9234C136.089 56.132 134.767 56.4409 133.454 56.8889C132.984 57.0511 132.523 57.221 132.062 57.4141C131.097 57.8234 130.149 58.3177 129.245 58.9124C127.932 59.7774 126.714 60.8587 125.671 62.1871C124.201 64.0717 123.08 66.4737 122.523 69.5244C122.506 69.648 122.479 69.7638 122.462 69.8874C122.097 72.104 122.027 74.6451 122.323 77.5722C122.349 77.8348 122.384 78.0974 122.41 78.36C122.253 78.1129 122.106 77.858 121.975 77.5954C121.888 77.4332 121.801 77.271 121.723 77.1011C120.897 75.7727 120.253 74.4288 119.801 73.1776C118.427 69.2927 119.21 66.3423 120.679 63.7086C121.836 61.631 123.427 59.7542 124.714 57.7693C126.097 55.6376 129.732 54.5718 133.167 54.0466C133.332 53.6373 133.636 53.2666 134.132 52.9731C134.349 52.8418 134.567 52.7105 134.784 52.5792C137.732 50.7642 140.454 48.787 142.202 51.8068C142.663 52.6023 142.88 53.5677 142.95 54.5795C143.037 54.6104 143.115 54.6413 143.202 54.6799C144.602 54.8498 145.958 55.1433 147.254 55.545V55.5681Z" fill="#9E2525"/>
<path d="M160.072 61.2528C159.254 61.6158 158.567 61.9479 157.993 62.2491C157.811 62.3495 157.637 62.4422 157.472 62.5349C155.889 63.4386 155.428 64.0873 155.767 64.5893C155.941 64.8519 156.333 65.0682 156.898 65.2613C158.428 65.7787 160.063 67.7482 159.654 69.5864C159.498 70.2815 159.054 70.9612 158.193 71.5404C157.55 71.9652 156.741 72.39 155.837 72.753C155.819 72.753 155.802 72.7685 155.793 72.7685C155.689 72.8071 155.585 72.8534 155.48 72.892C155.202 73.0002 154.915 73.1006 154.619 73.1933C153.124 73.6876 151.524 73.9965 150.167 73.9579C150.002 73.9579 149.837 73.9424 149.68 73.927C149.263 73.8884 148.88 73.8034 148.532 73.6798C147.732 73.3864 147.176 72.8534 147.002 72.0038C146.976 71.8571 146.941 71.7104 146.915 71.5868C146.784 71.0152 146.654 70.6291 146.497 70.3974C146.332 70.1425 146.15 70.0653 145.915 70.1116C145.263 70.2352 144.263 71.2856 142.384 72.1197C139.202 73.5331 131.871 76.0509 132.48 71.6563C132.506 71.4555 132.549 71.247 132.61 71.023C132.732 70.575 132.758 70.1734 132.706 69.8335C132.254 66.7982 125.871 67.3775 125.036 65.2999C124.853 64.8442 124.932 64.265 125.401 63.4926C125.801 62.8361 126.21 62.2414 126.636 61.7085C126.784 61.5231 126.932 61.3455 127.088 61.1679C127.827 60.326 128.584 59.6695 129.323 59.1907C130.584 58.372 131.801 58.063 132.784 58.233C132.801 58.233 132.81 58.233 132.827 58.233C133.21 58.3025 133.558 58.4415 133.854 58.65C133.932 58.7041 134.001 58.7504 134.054 58.7813C134.523 59.0516 134.288 58.6423 133.923 57.9163C133.775 57.6228 133.601 57.2675 133.445 56.8891C133.132 56.1167 132.888 55.2285 133.045 54.4407C133.071 54.3094 133.106 54.1858 133.158 54.0623C133.323 53.6529 133.627 53.2822 134.123 52.9887C134.341 52.8574 134.558 52.7261 134.775 52.5948C137.723 50.7798 140.445 48.8026 142.193 51.8225C142.654 52.618 142.871 53.5834 142.941 54.5952C142.958 54.9041 142.967 55.2208 142.958 55.5297C142.958 55.9545 142.923 56.3716 142.88 56.7809C142.863 56.974 142.836 57.1594 142.81 57.3447C142.802 57.4065 142.793 57.476 142.784 57.5378C142.767 57.6614 142.75 57.7773 142.723 57.8931C142.715 57.9549 142.706 58.0167 142.689 58.0707C142.689 58.1094 142.68 58.1403 142.671 58.1789C142.645 58.3334 142.61 58.4801 142.584 58.6269C142.567 58.7118 142.55 58.7967 142.532 58.8817C142.463 59.1906 142.402 59.4687 142.332 59.7236C142.315 59.7931 142.297 59.8626 142.28 59.9244C142.271 59.9707 142.262 60.0093 142.245 60.0479C142.236 60.0866 142.228 60.1252 142.21 60.1638C142.184 60.2719 142.149 60.3646 142.123 60.4496C142.123 60.4805 142.106 60.5036 142.097 60.5345C142.097 60.5422 142.097 60.55 142.097 60.5577C142.002 60.8744 141.932 61.0829 141.915 61.1292C141.915 61.1292 141.923 61.106 141.932 61.0983C141.958 61.0597 142.002 60.9902 142.071 60.8975C142.08 60.8821 142.089 60.8666 142.106 60.8512C142.176 60.7508 142.262 60.6349 142.358 60.4959C142.497 60.3183 142.654 60.1097 142.836 59.8857C142.88 59.8317 142.932 59.7776 142.976 59.7158C143.263 59.376 143.593 59.013 143.958 58.6732C143.984 58.6423 144.019 58.6191 144.045 58.5882C144.228 58.4183 144.419 58.2638 144.61 58.1171C144.645 58.0939 144.671 58.0708 144.706 58.0476C144.75 58.0167 144.784 57.9858 144.828 57.9626C144.863 57.9394 144.889 57.9163 144.924 57.9008C145.115 57.7773 145.306 57.6691 145.497 57.5842C145.523 57.5687 145.55 57.561 145.576 57.5456C145.897 57.4143 146.21 57.337 146.524 57.337C147.045 57.3447 147.471 57.2134 147.863 57.0049C148.271 56.7809 148.645 56.4797 149.028 56.1785C149.776 55.5992 150.593 55.0122 151.976 55.0122C153.637 55.0122 157.993 56.4488 160.15 58.0707C161.594 59.1597 162.046 60.3337 160.046 61.2142L160.072 61.2528Z" fill="#1C5360"/>
<path d="M160.167 58.1091C159.889 58.1554 159.585 58.1863 159.263 58.2018C156.654 58.3408 141.923 61.1753 141.923 61.1753C141.81 59.0977 142.219 57.9933 142.819 57.3522C142.541 59.4066 141.949 61.0981 141.923 61.1676C142.002 61.0517 144.428 57.3291 146.541 57.3677C148.689 57.4063 149.228 55.0429 151.993 55.0429C153.654 55.0429 158.011 56.4794 160.167 58.1014V58.1091Z" fill="#499FAD"/>
<path d="M142.967 55.5373C142.967 55.9621 142.932 56.3791 142.889 56.7885C142.871 56.9815 142.845 57.1669 142.819 57.3523C142.811 57.414 142.802 57.4836 142.793 57.5453C142.776 57.6689 142.758 57.7848 142.732 57.9006C142.724 57.9624 142.715 58.0242 142.698 58.0783C142.698 58.1169 142.689 58.1478 142.68 58.1864C142.654 58.3409 142.619 58.4876 142.593 58.6343C142.576 58.7193 142.558 58.8043 142.541 58.8892C142.471 59.1982 142.411 59.4762 142.341 59.7311C142.324 59.8006 142.306 59.8701 142.289 59.9319C142.28 59.9782 142.271 60.0168 142.254 60.0555C142.245 60.0941 142.237 60.1327 142.219 60.1713C142.193 60.2795 142.158 60.3721 142.132 60.4571C142.132 60.488 142.115 60.5112 142.106 60.542C142.106 60.5498 142.106 60.5575 142.106 60.5652C142.011 60.8819 141.941 61.0904 141.924 61.1368C141.906 61.1213 141.784 60.9746 141.593 60.7506C141.097 60.1791 140.115 59.0437 139.106 57.8852C138.863 57.6071 138.628 57.3291 138.393 57.0665C138.037 56.6572 137.689 56.2633 137.376 55.908C137.184 55.6917 137.01 55.4909 136.854 55.3133C136.263 54.6413 135.819 54.1547 135.497 53.7608C135.41 53.6604 135.341 53.5678 135.271 53.4751C135.028 53.143 134.871 52.8727 134.793 52.5792C137.741 50.7642 140.463 48.787 142.211 51.8068C142.671 52.6023 142.889 53.5677 142.958 54.5795C142.976 54.8885 142.985 55.2051 142.976 55.5141L142.967 55.5373Z" fill="#499FAD"/>
<path d="M154.619 73.2008C152.454 73.9113 150.063 74.2512 148.532 73.6874L146.915 71.5866C146.245 68.6748 145.567 70.7061 142.384 72.1195C139.062 73.5946 131.201 76.2824 132.61 71.0228C132.732 70.5748 132.758 70.1731 132.705 69.8333C133.01 69.7329 133.366 69.6325 133.775 69.5244C137.436 68.559 140.262 65.7862 140.871 65.1529C142.567 65.1375 150.141 65.1915 152.045 67.6167C153.871 69.9337 154.48 71.656 154.619 73.2085V73.2008Z" fill="#2E7A87"/>
<path d="M140.871 65.1529C140.871 65.1529 155.733 63.5232 160.341 70.4743C160.341 70.4743 156.715 74.143 154.611 72.5133C152.506 70.8837 154.872 66.2342 140.871 65.1529Z" fill="#499FAD"/>
<path d="M110.131 52.4788C109.671 54.3865 107.984 55.3442 106.297 54.6568C104.61 53.9772 104.453 54.3865 103.688 55.2052C102.922 56.0238 101.235 56.9816 99.8528 56.4332C98.4702 55.8848 94.9397 54.7958 94.3222 54.9348C93.7048 55.0739 88.4874 59.0283 88.183 59.0283C87.8786 59.0283 78.3566 67.2074 78.0523 63.1217C77.9305 61.5461 77.661 61.0441 77.2175 60.9205C76.5218 60.7197 75.4174 61.4843 73.9043 60.3953C73.6347 60.1945 73.4173 59.9782 73.2695 59.7465C72.0347 57.9238 74.139 55.2361 75.3826 54.6877C73.8434 55.2901 60.13 60.488 60.5474 56.1629C61.0083 51.3898 66.2258 45.798 75.7478 49.4821C77.3566 50.1 78.7305 50.6252 79.9045 51.0731C85.2785 53.0967 86.4873 53.4056 86.6264 53.4365C86.3568 53.3515 82.5132 52.0463 80.8262 49.2349C80.3653 48.478 80.0697 47.613 80.0349 46.6244C79.8958 42.4229 83.9307 34.1047 84.8959 32.1661C84.9307 32.0966 84.9568 32.0425 84.9829 31.9885C85.0611 31.834 85.1046 31.7568 85.1046 31.7568C85.1046 31.7568 85.1742 31.8417 85.2699 31.9962C85.7569 32.7377 87.1133 35.1474 86.4785 38.2986C85.7133 42.1139 85.4003 43.0716 86.3221 43.0716C87.2438 43.0716 89.3917 44.709 88.9308 46.2074C88.4699 47.7057 87.7047 48.7947 88.3135 49.2041C88.5656 49.374 88.9395 49.5593 89.27 49.7679C89.4178 49.8683 89.5569 49.9687 89.67 50.0768C89.7221 48.648 90.1744 45.6744 90.9222 43.8826C92.0005 41.2952 100.444 36.3831 100.444 36.3831C100.444 36.3831 102.131 37.3409 100.749 40.4766C99.3659 43.6123 96.9137 44.0216 97.218 44.9793C97.5224 45.937 99.5225 47.2964 97.9833 47.976C96.4441 48.6557 93.9918 49.3431 93.6875 50.293C93.4092 51.1504 94.131 52.0077 94.0527 52.2703C94.4527 51.9845 96.218 50.9341 98.6007 50.154C101.514 49.1963 110.575 50.5634 110.114 52.4711L110.131 52.4788Z" fill="#1C5360"/>
<path d="M128.419 100.503C128.428 100.758 128.341 100.997 128.176 101.198C128.037 101.36 127.854 101.492 127.637 101.569L118.115 96.7959C116.428 93.9305 89.4008 76.8849 84.8006 68.5667C80.8005 61.3376 83.0614 57.7152 90.7747 54.7417C91.6269 54.4096 92.54 54.0929 93.5226 53.7763C93.8792 53.6604 94.253 53.5446 94.6269 53.4287C105.375 50.154 117.045 73.4711 123.028 85.8827C123.897 87.6822 124.628 89.2733 125.237 90.6712C127.063 94.8419 127.845 97.3597 128.184 98.9044C128.211 99.0279 128.237 99.1438 128.254 99.2519C128.358 99.7926 128.402 100.194 128.411 100.495L128.419 100.503Z" fill="#FFA64A"/>
<path d="M128.176 101.198C128.037 101.36 127.854 101.492 127.637 101.569L118.115 96.7959C116.428 93.9305 89.4008 76.8848 84.8006 68.5667C80.8005 61.3375 83.0614 57.7152 90.7747 54.7417C89.9573 56.2864 89.1137 59.1673 91.7138 62.2953C95.5487 66.9293 100.001 68.1573 103.079 73.4788C106.149 78.8002 110.601 86.8403 113.21 88.4777C115.819 90.1151 119.81 91.0651 122.271 93.2508C124.002 94.7878 126.732 98.9044 128.184 101.198H128.176Z" fill="#FF7E2B"/>
<path d="M104.862 65.3383C104.323 65.5546 104.245 65.8094 104.862 65.3383Z" fill="#FFC38D"/>
<path d="M113.071 75.7186C112.853 76.352 112.497 76.7536 112.28 76.8849C112.08 77.0007 112.453 76.3133 113.071 75.7186Z" fill="#FFC38D"/>
<path d="M128.263 99.252C128.263 99.252 128.263 99.252 128.263 99.2597C127.993 99.4064 121.036 86.2997 121.036 86.2997C121.036 86.2997 118.732 86.2997 120.732 85.481C122.732 84.6624 117.819 78.8003 116.123 75.9349C115.158 74.2975 113.897 74.9308 113.071 75.7263C113.314 75.0158 113.384 74.0195 112.897 72.7992C111.975 70.4821 109.21 65.9793 107.062 65.2997C106.097 64.9907 105.314 65.1529 104.862 65.3383C104.879 65.3228 104.897 65.3074 104.914 65.2997C106.14 64.342 103.07 62.0249 101.383 58.3486C99.9574 55.236 95.0095 54.0698 93.5225 53.784C93.879 53.6682 94.2528 53.5523 94.6268 53.4365C105.375 50.1617 117.045 73.4788 123.028 85.8904C123.897 87.69 124.628 89.281 125.236 90.679C126.749 94.7029 127.88 97.8926 128.184 98.9121C128.245 99.1129 128.271 99.2288 128.263 99.252Z" fill="#FFC38D"/>
<path d="M95.4006 77.4332C95.4006 77.4332 94.7832 71.0227 96.6268 69.7947C98.4703 68.5667 105.375 66.3887 105.375 66.3887C105.375 66.3887 96.3137 69.2541 95.3919 77.4332H95.4006Z" fill="#FF7E2B"/>
<path d="M106.914 87.6591C106.914 87.6591 106.297 81.2486 108.14 80.0206C109.984 78.7926 116.888 76.6146 116.888 76.6146C116.888 76.6146 107.827 79.48 106.905 87.6591H106.914Z" fill="#FF7E2B"/>
<path d="M107.984 74.5678C107.984 74.5678 102.914 74.1585 100.923 76.3442C98.9227 78.5222 98.314 79.48 98.314 79.48C98.314 79.48 104.61 75.7958 107.984 74.5678Z" fill="#FF7E2B"/>
<path d="M97.6964 57.3831C97.6964 57.3831 92.6267 56.9738 90.6354 59.1595C88.6353 61.3375 88.0266 62.2953 88.0266 62.2953C88.0266 62.2953 94.3224 58.6111 97.6964 57.3831Z" fill="#FF7E2B"/>
<path d="M122.419 86.5701C122.419 86.5701 117.349 86.1607 115.358 88.3465C113.367 90.5322 112.749 91.4822 112.749 91.4822C112.749 91.4822 119.045 87.7981 122.419 86.5701Z" fill="#FF7E2B"/>
<path d="M88.6181 55.8153C88.6181 55.8153 80.2004 58.2018 77.5917 61.7469C74.9829 65.292 72.0611 69.1074 72.0611 70.0651C72.0611 71.0228 71.4437 75.1085 74.3655 72.9304C77.2786 70.7524 76.9742 68.0183 80.5048 68.0183C84.0353 68.0183 85.2614 68.2886 85.418 66.1106C85.5745 63.9326 84.4614 62.1717 86.0963 60.936C87.7224 59.7002 90.5921 59.4222 88.6181 55.8153Z" fill="#499FAD"/>
<path d="M77.2175 60.9127C76.5218 60.7119 75.4174 61.4766 73.9043 60.3876C73.6347 60.1867 73.4173 59.9705 73.2695 59.7388C72.0347 57.916 74.139 55.2283 75.3826 54.6799C73.8434 55.2823 60.13 60.4803 60.5474 56.1551C61.0083 51.382 66.2258 45.7902 75.7478 49.4743C77.3566 50.0922 78.7305 50.6174 79.9045 51.0654C79.6436 51.0113 70.3564 49.0959 68.6868 50.8414C66.9998 52.6178 67.9216 53.1584 70.6869 53.0194C73.4522 52.8804 78.6696 51.521 77.9044 53.5677C77.1392 55.6145 78.9827 56.0238 79.4436 57.1128C79.9045 58.1941 82.835 59.8237 77.2262 60.9127H77.2175Z" fill="#2E7A87"/>
<path d="M89.2962 49.7678C88.9831 49.7987 87.0005 49.9841 85.7309 49.6134C84.3482 49.204 85.1135 47.837 84.6526 45.2497C84.1917 42.6623 82.6526 44.4309 82.2004 41.8436C81.7482 39.2871 84.27 36.0742 84.9135 32.1584C84.9222 32.0966 84.9309 32.0426 84.9396 31.9808H85.0005L85.2874 31.9885C85.7744 32.7299 87.1309 35.1397 86.4961 38.2908C85.7309 42.1062 85.4179 43.0639 86.3397 43.0639C87.2614 43.0639 89.4093 44.7013 88.9484 46.1996C88.4875 47.698 87.7222 48.787 88.331 49.1963C88.5831 49.3662 88.9571 49.5516 89.2876 49.7601L89.2962 49.7678Z" fill="#2E7A87"/>
<path d="M110.384 106.497C109.027 105.832 108.279 104.489 108.488 103.129L115.071 60.5576C115.349 58.7426 116.575 57.1438 118.384 56.2633L145.619 42.979C148.159 41.7432 151.307 42.1448 153.35 43.9598L175.542 63.6701L160.185 56.719L151.072 51.1581C149.115 49.961 146.585 49.8142 144.463 50.7565L127.062 58.534C125.201 59.3681 123.906 60.936 123.567 62.7587L115.914 104.133C115.497 106.412 112.653 107.632 110.384 106.504V106.497Z" fill="#661A1A"/>
<path d="M170.012 84.9327C169.559 85.8595 168.951 86.7786 168.203 87.6668C167.907 88.0144 167.603 88.3619 167.264 88.7095C159.072 92.9805 149.124 98.078 143.341 101.028C138.072 101.067 128.75 98.0703 126.941 96.8654C125.097 95.6374 122.028 89.227 122.028 89.227L123.297 88.555L125.097 87.5973C125.097 87.5973 131.393 90.0533 133.08 89.9143C134.358 89.8139 141.437 85.1104 144.976 82.2604C146.098 81.3568 146.872 80.6307 146.976 80.3064C147.437 78.9393 156.646 65.0371 158.185 63.531C159.724 62.0327 164.637 58.4876 164.637 58.4876L169.551 49.2118L174.925 53.9849L174.855 54.7186L174.768 55.5759L174.273 60.6116L174.16 61.7547C174.203 61.8551 174.247 61.9555 174.281 62.0482C179.447 74.4675 174.073 76.5219 170.012 84.9327Z" fill="#FEC166"/>
<path d="M179.064 82.4149C177.264 83.4344 174.264 85.064 170.629 86.9717C169.29 87.6591 167.255 88.7481 167.255 88.7481C167.255 88.7481 168.185 87.7518 168.211 87.6668C168.681 85.9136 173.794 66.659 172.472 61.0673L172.933 61.3376C172.933 61.3376 173.481 61.5847 174.29 62.0404C174.516 62.1717 174.759 62.3107 175.02 62.4729C177.255 63.8554 180.516 66.3964 180.62 69.5167C180.768 74.1662 180.916 79.8507 179.081 82.4149H179.064Z" fill="#C65414"/>
<path d="M170.012 84.9327C169.559 85.8595 168.951 86.7786 168.203 87.6668C167.907 88.0144 167.603 88.3619 167.264 88.7094C159.072 92.9805 149.124 98.078 143.341 101.028C138.072 101.067 128.75 98.0703 126.941 96.8654C125.097 95.6374 122.028 89.227 122.028 89.227L123.297 88.555C131.524 98.9276 140.733 90.5168 145.133 89.9838C149.585 89.4355 158.49 78.669 159.568 76.4833C160.646 74.2975 165.559 71.9805 167.246 68.7135C168.933 65.4465 171.159 53.7995 171.159 53.7995L174.855 54.7185L175.003 54.7572C175.003 54.7572 174.899 55.0739 174.768 55.5759C174.42 56.8503 173.873 59.2831 174.273 60.6115L174.16 61.7546C174.203 61.855 174.247 61.9555 174.281 62.0481C179.447 74.4674 174.073 76.5219 170.012 84.9327Z" fill="#FF7E2B"/>
<path d="M169.551 49.204V51.7914C169.551 51.7914 167.707 59.5612 166.785 59.9705C165.864 60.3798 162.49 62.1485 160.646 65.1529C158.803 68.1573 156.959 72.9227 155.576 74.9694C154.194 77.0161 146.367 82.1986 145.75 82.3298C145.637 82.353 145.359 82.3221 144.976 82.2449C146.098 81.3413 146.872 80.6153 146.976 80.2909C147.437 78.9238 156.646 65.0216 158.185 63.5155C159.724 62.0172 164.637 58.4722 164.637 58.4722L169.551 49.1963V49.204Z" fill="#FEC166"/>
<path d="M174.617 54.6944C175.576 54.0742 175.26 52.2381 173.912 50.5932C172.563 48.9484 170.693 48.1177 169.734 48.7379C168.775 49.3581 169.09 51.1942 170.439 52.8391C171.787 54.4839 173.658 55.3146 174.617 54.6944Z" fill="#913636"/>
<path d="M81.5998 77.6341C83.6172 73.1004 81.165 68.1497 74.3039 64.7204C63.8514 59.4994 46.7466 59.5921 36.2942 64.929C30.9723 67.6477 28.4157 71.2468 28.607 74.8305L28.2244 74.8459L32.068 136.479H32.181C32.355 139.429 34.6941 142.372 39.1899 144.612C48.3988 149.2 63.0949 149.115 71.8517 144.434C76.7388 141.816 78.8345 138.325 78.1823 134.973L81.6085 77.6418L81.5998 77.6341Z" fill="#1C5360"/>
<path d="M75.7128 67.0606C64.3647 61.3916 45.799 61.492 34.4508 67.2923C23.1027 73.0849 23.3374 82.5693 34.9639 88.3619C46.599 94.1545 65.1648 94.054 76.2259 88.1302C87.2871 82.2063 87.0609 72.7296 75.7128 67.0606Z" fill="#1F7D87"/>
<path d="M26.5549 68.7289C26.5549 68.7289 25.3635 76.5373 26.0766 78.8544C26.7896 81.1714 28.6941 84.338 30.5898 85.6047C32.4855 86.8713 33.8246 81.7584 33.8246 81.7584C33.8246 81.7584 27.7375 76.7382 27.7375 74.2049C27.7375 71.6716 26.5462 68.7212 26.5462 68.7212L26.5549 68.7289Z" fill="#1F7D87"/>
<path d="M83.8956 69.5476C83.8956 69.5476 84.5131 76.9621 84.0435 79.0706C83.5652 81.1791 75.7302 86.4542 75.7302 86.4542L75.252 83.2876C75.252 83.2876 75.252 79.7039 75.4868 79.4877C75.7215 79.2714 83.9913 74.7918 83.8956 69.5399V69.5476Z" fill="#1F7D87"/>
<path d="M75.7128 61.1058C64.3647 55.4368 45.799 55.5372 34.4508 61.3375C23.1027 67.1301 23.3374 76.6145 34.9639 82.4071C46.599 88.1997 65.1648 88.0993 76.2259 82.1754C87.2871 76.2515 87.0609 66.7749 75.7128 61.1058Z" fill="#34ADC1"/>
<path d="M70.6518 60.1559C61.9733 55.823 47.7729 55.9003 39.0944 60.3335C30.4159 64.7668 30.5986 72.0191 39.4858 76.4446C48.3817 80.8779 62.582 80.8007 71.0431 76.267C79.5042 71.7411 79.3303 64.4888 70.6518 60.1559Z" fill="#73D5E0"/>
<path d="M32.729 68.5204V64.7204L77.1563 64.0871L77.3911 68.3041C77.3911 68.3041 51.0252 83.0714 32.729 68.5127V68.5204Z" fill="#73D5E0"/>
<path d="M70.6518 56.5644C61.9733 52.2316 47.7729 52.3089 39.0944 56.7421C30.4159 61.1754 30.5986 68.4277 39.4858 72.8532C48.3817 77.2865 62.582 77.2092 71.0431 72.6755C79.5042 68.1496 79.3303 60.8973 70.6518 56.5644Z" fill="#57D0DD"/>
<path d="M38.2512 139.375C36.4685 134.34 39.3729 128.964 46.9297 125.187C58.9648 119.171 78.6089 119.263 90.5831 125.388C97.8964 129.134 100.644 134.347 98.8702 139.244C100.001 142.341 99.2964 145.593 96.7659 148.551C96.2006 151.934 93.3396 155.247 88.209 157.834C76.8696 163.542 58.7387 163.457 47.9123 157.649C43.0165 155.023 40.3904 151.686 39.999 148.304C39.686 147.91 39.4078 147.508 39.1643 147.099C37.6338 144.596 37.3381 141.932 38.2425 139.383L38.2512 139.375Z" fill="#FF7E2B"/>
<path d="M38.8774 141.059C37.0947 136.023 39.9991 130.648 47.5559 126.871C59.591 120.854 79.2351 120.947 91.2093 127.072C98.5226 130.818 101.271 136.031 99.4965 140.928C100.627 144.025 99.9226 147.276 97.3921 150.234C97.3921 150.234 92.0963 130.547 55.904 141.198C49.2951 143.144 44.008 145.778 39.7905 148.775C38.26 146.272 37.9643 143.608 38.8687 141.059H38.8774Z" fill="#FF7E2B"/>
<path d="M36.2336 138.757C35.5119 139.051 34.764 139.352 34.2423 139.893C33.7205 140.433 33.5031 141.26 33.9379 141.847C34.3466 142.387 35.1379 142.55 35.8162 142.797C36.4944 143.044 37.2075 143.577 37.051 144.218C36.9727 144.535 36.6945 144.782 36.4249 144.998C35.3032 145.894 34.0684 146.682 32.7466 147.323C33.9901 148.852 36.0249 149.848 38.138 149.972C39.6511 150.057 41.3381 149.756 42.5469 150.567C44.1034 151.602 44.0599 153.988 45.7991 154.768C47.6948 155.618 49.7905 153.803 51.9123 153.787C54.7123 153.764 56.3211 156.707 58.9212 157.626C61.2778 158.46 63.93 157.479 66.0605 156.251C67.8258 155.232 69.6171 153.973 71.7128 153.949C73.2433 153.934 74.6781 154.575 76.1825 154.822C78.1652 155.147 80.287 154.737 81.9392 153.71C83.6784 152.636 84.9567 150.899 86.9742 150.327C89.1134 149.717 91.3917 150.597 93.6353 150.721C96.6179 150.891 99.8876 149.331 100.557 146.728C100.705 146.141 100.731 145.523 101.009 144.983C101.757 143.515 104.053 143.09 104.818 141.638C104.383 140.881 103.183 140.727 102.635 140.032C101.801 138.95 103.044 137.576 104.183 136.742C102.54 135.583 100.296 135.336 98.2179 135.544C96.1396 135.753 94.1396 136.363 92.0961 136.757C91.8178 136.811 91.5134 136.857 91.2525 136.773C90.922 136.664 90.722 136.379 90.4959 136.139C89.4176 134.988 87.5133 134.726 85.8698 135.027C84.2262 135.328 82.748 136.085 81.2088 136.695C78.5739 137.746 75.5999 138.364 72.7911 137.761C70.6954 137.313 68.8345 136.224 66.7649 135.691C64.2953 135.058 61.6778 135.251 59.1212 135.452C57.1037 135.606 55.0776 135.768 53.121 136.201C50.7383 136.734 48.373 137.684 45.9295 137.421C44.3903 137.259 42.9034 136.618 41.3555 136.734C40.2859 136.811 39.2945 137.251 38.3293 137.684C37.538 138.039 36.7553 138.394 35.964 138.75" fill="#1C5360"/>
<path d="M39.3119 143.021C37.1119 142.781 34.9118 142.55 32.7118 142.31C31.3117 142.156 29.6682 141.847 29.1378 140.688C28.8769 140.124 28.9464 139.437 28.5377 138.943C28.0594 138.364 27.1378 138.286 26.3551 138.093C25.5725 137.9 24.7115 137.305 24.9463 136.61C25.0159 136.402 25.1725 136.232 25.3377 136.077C26.1464 135.297 27.1725 134.695 28.2856 134.332C28.9552 134.116 29.7204 133.946 30.1291 133.428C30.877 132.478 29.9204 131.096 30.416 130.022C30.8595 129.057 32.2335 128.779 33.4075 128.794C34.5814 128.81 35.8336 128.964 36.8249 128.416C37.2945 128.161 37.6511 127.767 38.0859 127.466C38.7642 127.01 39.6338 126.794 40.4773 126.879C40.8338 126.91 41.225 127.033 41.3642 127.319C41.4337 127.458 41.4338 127.628 41.4251 127.782C41.2338 130.795 38.1033 133.521 39.0598 136.417C39.1729 136.765 39.3467 137.105 39.4076 137.46C39.7032 139.252 37.1293 140.781 37.6598 142.526" fill="#1C5360"/>
<path d="M39.747 128.57C37.2774 133.173 29.5207 133.119 25.6858 136.912C35.9817 145.987 50.4865 150.281 61.6781 158.475C76.8959 152.397 92.0528 146.203 107.149 139.893C110.192 138.618 113.279 137.313 115.758 135.29C104.749 131.366 93.9659 126.956 83.4439 122.083C81.096 120.994 78.7046 119.866 76.0785 119.565C74.1045 119.333 72.1045 119.588 70.1392 119.858C59.1563 121.333 47.7299 123.326 39.0253 129.466" fill="#1C5360"/>
<path d="M39.747 125.898C37.2774 130.501 29.5207 130.447 25.6858 134.239C35.9817 143.314 50.4865 147.608 61.6781 155.803C76.8959 149.725 92.0528 143.53 107.149 137.22C110.192 135.946 113.279 134.641 115.758 132.617C104.749 128.694 93.9659 124.284 83.4439 119.41C81.096 118.321 78.7046 117.194 76.0785 116.892C74.1045 116.661 72.1045 116.915 70.1392 117.186C59.1563 118.661 47.7299 120.654 39.0253 126.794" fill="#FEC166"/>
<path d="M104.575 131.582C106.653 135.853 103.27 140.402 94.47 143.608C80.4609 148.705 57.6081 148.628 43.6685 143.438C35.1553 140.263 31.9552 135.846 34.0248 131.69C32.7117 129.064 33.5291 126.307 36.477 123.805C37.1379 120.939 40.4598 118.128 46.4339 115.942C59.6342 111.107 80.7304 111.177 93.3221 116.104C99.0179 118.329 102.079 121.156 102.531 124.021C102.896 124.353 103.218 124.701 103.505 125.041C105.279 127.164 105.636 129.42 104.575 131.582Z" fill="#8E432C"/>
<path d="M98.7397 123.009C100.522 128.045 97.6178 133.42 90.0611 137.197C78.026 143.214 58.382 143.121 46.4077 136.996C39.0945 133.251 36.3466 128.037 38.1205 123.141C36.9901 120.043 37.6945 116.792 40.225 113.834C40.7902 110.451 43.6511 107.138 48.7817 104.55C60.1211 98.8426 78.2521 98.9275 89.0784 104.736C93.9742 107.362 96.6005 110.698 96.9918 114.081C97.3048 114.475 97.5831 114.876 97.8266 115.286C99.357 117.788 99.6527 120.453 98.7484 123.002L98.7397 123.009Z" fill="#FFA64A"/>
<path d="M52.5905 117.201C46.9034 114.297 47.0252 109.516 52.8602 106.581C58.6951 103.647 68.0171 103.693 73.5824 106.674C79.1478 109.663 79.0261 114.444 73.3129 117.294C67.5997 120.144 58.2689 120.105 52.5905 117.201Z" fill="#FEC166"/>
<path d="M53.3557 118.862C53.7644 118.738 54.1818 118.653 54.6079 118.591L53.9122 118.676C54.147 118.645 54.3905 118.63 54.6252 118.622C55.9905 118.568 57.2949 117.595 57.234 116.305C57.1731 115.1 56.0862 113.926 54.6252 113.988C53.7296 114.027 52.8166 114.143 51.9644 114.398C50.6687 114.776 49.6948 116.019 50.1382 117.248C50.5556 118.391 51.9556 119.271 53.347 118.869L53.3557 118.862Z" fill="#FFA64A"/>
<path d="M55.208 112.05L55.2515 112.003L54.8427 112.474C54.9036 112.413 54.9645 112.359 55.0341 112.312L54.5037 112.675C54.5819 112.629 54.6514 112.59 54.7384 112.552L54.1123 112.783C54.2166 112.745 54.321 112.722 54.434 112.698L53.7384 112.783C53.8515 112.776 53.9558 112.776 54.0689 112.783L53.3732 112.698H53.4427C54.1384 112.83 54.8167 112.807 55.4515 112.474C55.9906 112.196 56.5124 111.64 56.6515 111.092C56.7994 110.497 56.7732 109.833 56.3906 109.308C56.0428 108.821 55.495 108.35 54.8341 108.242C54.1732 108.134 53.4341 108.072 52.7558 108.304C52.2253 108.481 52.0166 108.574 51.6079 108.852C51.1992 109.13 51.0514 109.3 50.7036 109.717C50.5123 109.98 50.4078 110.273 50.3904 110.582C50.3122 110.891 50.3296 111.2 50.4339 111.509C50.5992 112.05 51.0687 112.629 51.634 112.892C52.2427 113.177 52.9731 113.316 53.6427 113.123L54.2689 112.892C54.6602 112.683 54.9732 112.405 55.208 112.057V112.05Z" fill="#FFA64A"/>
<path d="M69.7304 115.108C70.9391 115.332 72.1741 115.479 73.4089 115.518C74.7741 115.564 76.0785 114.421 76.0176 113.2C75.9568 111.911 74.8698 110.93 73.4089 110.883C72.948 110.868 72.487 110.837 72.0261 110.798C72.4957 110.837 71.9914 110.798 71.8 110.768C71.5739 110.729 71.3479 110.69 71.1218 110.652C69.7914 110.405 68.2348 110.999 67.913 112.274C67.6173 113.432 68.3043 114.853 69.7391 115.124L69.7304 115.108Z" fill="#FFA64A"/>
<path d="M68.7912 121.179H68.9042C68.6694 121.163 68.4433 121.132 68.2085 121.109C68.4781 121.148 68.739 121.21 68.9911 121.302L68.3651 121.071C68.5825 121.156 68.7738 121.256 68.9651 121.38L68.4346 121.017C68.5563 121.102 68.6694 121.194 68.7825 121.295C69.7477 122.152 71.5217 122.214 72.4695 121.295C73.4174 120.376 73.4956 118.939 72.4695 118.02C72.0608 117.657 71.5738 117.317 71.0434 117.093C70.2607 116.769 69.6346 116.637 68.7738 116.552C68.1476 116.498 67.3563 116.854 66.9302 117.232C66.478 117.634 66.1389 118.29 66.165 118.87C66.1911 119.449 66.4172 120.09 66.9302 120.507C67.4694 120.947 68.052 121.117 68.7738 121.187L68.7912 121.179Z" fill="#FFA64A"/>
<path d="M76.2086 108.69H77.3652C78.0347 108.69 78.7391 108.435 79.2087 108.01C79.6783 107.586 80 106.952 79.9739 106.373C79.9478 105.794 79.7217 105.153 79.2087 104.736C78.6956 104.319 78.0695 104.056 77.3652 104.056H76.2086C75.5391 104.056 74.8347 104.311 74.3651 104.736C73.8955 105.16 73.5738 105.794 73.5999 106.373C73.626 106.952 73.8521 107.593 74.3651 108.01C74.8782 108.427 75.5043 108.69 76.2086 108.69Z" fill="#FFA64A"/>
<path d="M98.7397 123.009C100.522 128.045 97.6178 133.421 90.0611 137.197C78.026 143.214 58.382 143.121 46.4077 136.996C39.0945 133.251 36.3466 128.037 38.1205 123.141C36.9901 120.044 37.6945 116.792 40.225 113.834C40.225 113.834 45.5207 133.521 81.713 122.87C88.3219 120.924 93.609 118.29 97.8266 115.294C99.357 117.796 99.6527 120.461 98.7484 123.009H98.7397Z" fill="#FF7E2B"/>
<path d="M44.4424 120.97L47.3817 123.048C47.9469 123.442 48.4773 123.728 49.2252 123.728C49.8687 123.728 50.6252 123.473 51.0687 123.048C51.9383 122.206 52.2079 120.576 51.0687 119.773L48.1295 117.696C47.5643 117.302 47.0338 117.016 46.286 117.016C45.6425 117.016 44.8859 117.271 44.4424 117.696C43.5728 118.537 43.3033 120.167 44.4424 120.97Z" fill="#FEC166"/>
<path d="M56.9211 126.106C58.1559 126.655 59.3646 126.948 60.7386 127.064C62.1125 127.18 63.4082 125.913 63.3474 124.747C63.2778 123.395 62.1995 122.554 60.7386 122.43C61.2517 122.538 60.1734 122.384 60.7386 122.43C60.5386 122.384 60.3386 122.353 60.1473 122.306C59.9821 122.26 59.8168 122.206 59.6516 122.16C59.469 122.098 59.5386 122.129 59.869 122.245C59.7647 122.198 59.6603 122.16 59.556 122.106C58.3385 121.565 56.6776 121.781 55.9907 122.94C55.3646 123.99 55.6254 125.527 56.9298 126.106H56.9211Z" fill="#FEC166"/>
<path d="M56.3297 128.709V128.671C56.408 127.582 55.4513 126.786 54.4165 126.439C53.2861 126.052 51.9122 126.655 51.347 127.535C50.6252 128.655 51.0861 130.099 52.3122 130.771C53.1122 131.204 54.2079 131.32 55.1122 131.521C56.434 131.814 57.9992 131.142 58.321 129.899C58.6427 128.655 57.9123 127.365 56.4949 127.049C55.7992 126.894 55.0688 126.778 54.3905 126.57L55.0166 126.801L54.947 126.763L55.8862 127.597L55.8514 127.535V129.875L55.8775 129.837L54.3209 130.903H54.3731C53.9122 130.895 53.4514 130.895 52.9818 130.895L53.0252 130.91L51.1122 128.678V128.717C51.0252 129.93 52.3731 131.088 53.7209 131.034C55.2079 130.972 56.2427 130.014 56.3297 128.717V128.709Z" fill="#FEC166"/>
<path d="M74.4606 124.755C75.4954 124.43 76.5215 124.114 77.5563 123.789C78.8433 123.388 79.8347 122.191 79.3825 120.939C78.9738 119.812 77.5476 118.893 76.1736 119.317L73.078 120.283C71.791 120.684 70.7996 121.882 71.2517 123.133C71.6604 124.26 73.0866 125.18 74.4606 124.755Z" fill="#FEC166"/>
<path d="M88.2438 115.533C88.3046 115.448 88.3742 115.363 88.4437 115.278L88.0351 115.749C88.2003 115.564 88.3829 115.402 88.5916 115.255L88.0612 115.618C88.2699 115.479 88.496 115.355 88.7308 115.263C89.2873 115.039 89.7743 114.382 89.9308 113.88C90.1047 113.324 90.0264 112.59 89.6699 112.096C89.3134 111.602 88.7742 111.169 88.1133 111.03L87.4177 110.945C86.9481 110.945 86.5046 111.053 86.1046 111.262C85.122 111.656 84.3133 112.389 83.748 113.193C83.0176 114.22 83.4697 115.796 84.6872 116.359C85.9742 116.962 87.4785 116.622 88.2525 115.525L88.2438 115.533Z" fill="#FEC166"/>
<path d="M87.2436 126.214C87.4523 126.16 87.6611 126.114 87.8698 126.068C88.5133 125.929 87.3654 126.068 88.035 126.052C88.2524 126.052 88.4698 126.037 88.6785 126.045C88.8263 126.045 89.4699 126.13 88.8438 126.045C90.1829 126.23 91.7134 125.736 92.0525 124.423C92.3395 123.31 91.6699 121.774 90.2264 121.573C88.7829 121.372 87.3132 121.364 85.8523 121.743C84.5479 122.09 83.5914 123.388 84.0262 124.593C84.461 125.797 85.8349 126.577 87.2349 126.214H87.2436Z" fill="#FEC166"/>
<path d="M90.7479 120.878C90.7479 120.878 90.7566 120.847 90.7653 120.831L90.5044 121.387C90.5044 121.387 90.5218 121.356 90.5305 121.341L90.1218 121.812C90.1218 121.812 90.174 121.766 90.2001 121.743L89.6696 122.106C89.6696 122.106 89.7131 122.082 89.7391 122.067L89.1131 122.299C89.1566 122.283 89.2001 122.268 89.2522 122.268L88.5565 122.353C88.5565 122.353 88.6348 122.353 88.6696 122.353L87.974 122.268C87.974 122.268 88.0261 122.283 88.0522 122.291L87.4261 122.059C87.4261 122.059 87.4783 122.082 87.4956 122.098L86.9652 121.735C86.9652 121.735 86.9913 121.758 87.0087 121.774C87.2435 121.997 87.5218 122.16 87.8522 122.252C88.1653 122.399 88.4956 122.461 88.8609 122.453C89.2174 122.469 89.5566 122.399 89.8696 122.252C90.1914 122.16 90.4696 121.997 90.7131 121.774C91.1653 121.333 91.5044 120.754 91.4783 120.136L91.3827 119.518C91.2609 119.124 91.0348 118.785 90.7131 118.499C90.5392 118.337 90.3305 118.19 90.1044 118.082C89.9914 118.028 89.8696 117.989 89.7566 117.95C89.6435 117.912 89.5131 117.85 89.3914 117.819C89.2175 117.773 88.8522 117.75 88.6696 117.734C88.6435 117.734 88.6261 117.734 88.6 117.734C88.4783 117.734 88.2348 117.773 88.2087 117.781C88.1391 117.788 87.9304 117.804 87.8087 117.827C87.7913 117.827 87.774 117.835 87.7566 117.842C87.574 117.896 87.2783 118.004 87.1044 118.089C87.087 118.097 87.0608 118.113 87.0434 118.12C86.9304 118.182 86.5913 118.422 86.4956 118.499C86.4782 118.514 86.4609 118.53 86.4435 118.545L86.4261 118.568L86.0174 119.039C85.9478 119.14 85.9217 119.225 85.8608 119.356C85.8173 119.441 85.7477 119.572 85.7129 119.68C85.5999 119.989 85.5913 120.298 85.6695 120.607C85.6869 120.916 85.7913 121.202 85.9826 121.472C86.1478 121.743 86.3739 121.959 86.6522 122.121C86.9044 122.33 87.2 122.461 87.5392 122.538L88.2348 122.623C88.7044 122.623 89.1479 122.515 89.5479 122.306L90.0783 121.943C90.4001 121.658 90.6262 121.31 90.7479 120.924V120.878Z" fill="#FEC166"/>
<path d="M68.6429 134.231L72.7301 136.039C73.9475 136.579 75.6084 136.363 76.2954 135.205C76.9215 134.154 76.6606 132.609 75.3562 132.038C74.0519 131.466 72.6344 130.833 71.2691 130.231C70.0517 129.69 68.3908 129.906 67.7038 131.065C67.0777 132.115 67.3385 133.66 68.6429 134.231Z" fill="#FEC166"/>
<path d="M67.278 129.52L69.5738 130.007C70.8955 130.285 72.4607 129.636 72.7825 128.385C73.1042 127.134 72.3825 125.836 70.9564 125.535L68.6607 125.048C67.3389 124.77 65.7737 125.419 65.4519 126.67C65.1302 127.921 65.8519 129.219 67.278 129.52Z" fill="#FEC166"/>
<path d="M79.3997 107.091C79.565 107.416 79.304 106.96 79.3214 106.929C79.2953 106.968 79.4258 107.223 79.4431 107.269C79.504 107.477 79.5475 107.678 79.5823 107.894L79.4867 107.277C79.5128 107.516 79.5214 107.748 79.5127 107.979C79.4779 109.192 80.7388 110.351 82.1214 110.296C83.5041 110.242 84.6867 109.277 84.7302 107.979C84.765 106.836 84.4346 105.786 83.8954 104.759C83.6346 104.264 82.9128 103.832 82.3388 103.693C81.7127 103.538 80.8867 103.608 80.3301 103.925C79.0518 104.658 78.7823 105.917 79.391 107.091H79.3997Z" fill="#FEC166"/>
<path d="M87.2176 108.288C87.8785 108.953 88.8611 109.455 89.8263 109.655C90.5046 109.794 91.2263 109.74 91.835 109.424C92.3742 109.146 92.8959 108.59 93.0351 108.041C93.1829 107.447 93.1568 106.782 92.7742 106.257C92.4176 105.763 91.8786 105.33 91.2177 105.191C91.0698 105.16 90.922 105.122 90.7829 105.075L91.409 105.307C91.1829 105.222 90.9742 105.114 90.7829 104.99L91.3133 105.353C91.1655 105.253 91.0438 105.145 90.922 105.021C90.4959 104.597 89.7045 104.342 89.0784 104.342C88.4523 104.342 87.6784 104.597 87.2349 105.021C86.7914 105.446 86.4436 106.041 86.4696 106.659C86.4957 107.277 86.7566 107.817 87.2349 108.296L87.2176 108.288Z" fill="#FEC166"/>
<path d="M42.7729 114.568C42.7729 114.568 42.8511 114.645 42.8859 114.683L42.4772 114.212C42.5642 114.32 42.6338 114.421 42.6946 114.544L42.4338 113.988C42.5034 114.135 42.5468 114.274 42.5642 114.429L42.4685 113.811C42.4772 113.911 42.4859 114.011 42.4685 114.112C42.4337 114.683 42.7816 115.355 43.2338 115.749C43.686 116.143 44.4251 116.452 45.0773 116.429C45.7295 116.406 46.4512 116.205 46.9208 115.749C47.3904 115.294 47.6426 114.753 47.6861 114.112C47.7035 113.803 47.6426 113.494 47.5904 113.193C47.5643 113.069 47.5383 112.946 47.4861 112.822C47.2426 112.212 46.9383 111.764 46.46 111.285C46.0339 110.86 45.2426 110.605 44.6165 110.605C43.9904 110.605 43.2164 110.86 42.7729 111.285C42.3294 111.71 41.9816 112.305 42.0077 112.922C42.0338 113.54 42.2946 114.081 42.7729 114.56V114.568Z" fill="#FEC166"/>
<path d="M38.3291 119.117C38.4161 119.611 38.5031 120.098 38.59 120.592C38.6857 121.125 39.2857 121.712 39.7901 121.974C40.3466 122.268 41.1726 122.391 41.7988 122.206C42.4249 122.021 43.0423 121.681 43.3554 121.14L43.6163 120.584C43.738 120.175 43.738 119.765 43.6163 119.348C43.5293 118.854 43.4423 118.367 43.3554 117.873C43.2597 117.34 42.6597 116.753 42.1553 116.491C41.5988 116.197 40.7727 116.074 40.1466 116.259C39.5205 116.444 38.9031 116.784 38.59 117.325L38.3291 117.881C38.2074 118.29 38.2074 118.7 38.3291 119.117Z" fill="#FEC166"/>
<path d="M38.5901 130.262C38.764 130.462 38.7553 130.447 38.5466 130.207C38.6248 130.3 38.7031 130.393 38.7814 130.486C38.9379 130.671 39.0858 130.864 39.2336 131.057C39.5293 131.443 39.8075 131.829 40.0771 132.231C40.7814 133.266 42.451 133.745 43.6424 133.065C44.8337 132.385 45.3294 131.003 44.5816 129.899C43.8946 128.879 43.1033 127.929 42.2772 126.995C41.8945 126.562 41.025 126.315 40.4336 126.315C39.7901 126.315 39.0336 126.57 38.5901 126.995C38.1466 127.419 37.7988 128.014 37.8249 128.632C37.8596 129.288 38.1379 129.76 38.5901 130.269V130.262Z" fill="#FEC166"/>
<path d="M58.2601 138.819C58.4601 138.804 58.66 138.788 58.8688 138.796C58.9644 138.796 59.7123 138.881 59.3297 138.811C58.947 138.742 59.5993 138.881 59.6775 138.896C59.8166 138.927 60.5123 139.167 59.9123 138.935C60.5819 139.19 61.1906 139.344 61.921 139.167C62.5297 139.02 63.182 138.603 63.4776 138.101C64.0689 137.105 63.8777 135.444 62.5385 134.934C61.1993 134.425 59.7645 134.077 58.2601 134.193C56.9035 134.293 55.5817 135.181 55.6513 136.51C55.7122 137.676 56.8079 138.935 58.2601 138.827V138.819Z" fill="#FEC166"/>
<path d="M89.8261 130.231L89.7913 130.2C89.0173 129.566 87.5651 129.211 86.626 129.837C85.8694 130.339 85.1911 131.018 85.278 131.938C85.365 132.857 86.0173 134.015 87.1912 134.17C87.9912 134.278 88.6608 134.286 89.3826 133.923C89.7478 133.737 90.0782 133.498 90.4348 133.305C90.7913 133.112 91.1217 132.949 91.4782 132.795C91.6348 132.725 91.8 132.656 91.9565 132.594C91.5652 132.749 92.3131 132.47 92.3131 132.47C93.5827 132.046 94.6001 130.887 94.1392 129.621C93.7392 128.516 92.2956 127.543 90.9304 127.999C90.1043 128.277 89.2782 128.578 88.4956 128.949C87.8695 129.242 87.3129 129.651 86.6868 129.945L88.6956 129.713L88.5738 129.698L90.487 131.93V131.868C90.0522 132.532 89.6173 133.204 89.1912 133.868L89.2521 133.83L86.0868 133.467L86.1216 133.498C87.1217 134.316 88.8347 134.448 89.8087 133.498C90.7304 132.602 90.8783 131.096 89.8087 130.223L89.8261 130.231Z" fill="#FEC166"/>
<path d="M98.7309 121.148L99.8613 119.24C100.496 118.167 100.209 116.676 98.9222 116.074C97.7221 115.51 96.0352 115.757 95.3569 116.908L94.2264 118.815C93.5916 119.889 93.8785 121.38 95.1655 121.982C96.3655 122.546 98.0526 122.299 98.7309 121.148Z" fill="#FEC166"/>
<path d="M33.886 144.959C37.2427 144.959 37.2514 140.325 33.886 140.325C30.5207 140.325 30.5207 144.959 33.886 144.959Z" fill="#1C5360"/>
<path d="M55.843 63.4692L58.7561 44.4772L72.1131 37.7656" stroke="#1C5360" stroke-width="30.072" stroke-miterlimit="10" stroke-linecap="round"/>
<circle cx="265.487" cy="72.4054" r="38.1081" fill="#335816"/>
<circle cx="261.676" cy="68.5946" r="36.8378" fill="#D8FFB9"/>
<path d="M242.622 71.7703L256.753 84.2714C257.974 85.351 259.881 85.0188 260.664 83.5901L280.73 47" stroke="#EBFFDC" stroke-width="7.62162" stroke-linecap="round"/>
<path d="M243.892 75.5811L258.024 88.0822C259.244 89.1618 261.151 88.8296 261.934 87.4009L282 50.8108" stroke="#335816" stroke-width="7.62162" stroke-linecap="round"/>
</svg>
