<svg width="307" height="190" viewBox="0 0 307 190" fill="none" xmlns="http://www.w3.org/2000/svg">
<path d="M168.389 14.1475V127.284C168.389 132.279 165.412 136.903 160.561 139.438L119.73 160.797C109.133 166.335 95.78 159.556 95.78 148.643V34.5052C95.78 29.4022 98.8794 24.7017 103.89 22.1992L144.721 1.83056C155.318 -3.45743 168.389 3.34297 168.389 14.1366V14.1475Z" fill="#1C5360"/>
<path d="M174.613 16.8023V129.939C174.613 134.933 171.636 139.558 166.785 142.093L125.953 163.452C115.357 168.99 102.003 162.211 102.003 151.298V37.16C102.003 32.057 105.103 27.3566 110.113 24.854L150.945 4.48541C161.541 -0.802589 174.613 5.99781 174.613 16.7914V16.8023Z" fill="#65CEE0"/>
<path d="M150.234 19.2287V22.0033C150.234 22.8302 149.744 23.5918 148.935 24.0162L130.817 33.4388C129.065 34.3528 126.872 33.2321 126.872 31.4259V28.6514C126.872 27.8244 127.362 27.0627 128.171 26.6384L146.289 17.2158C148.041 16.3018 150.234 17.4225 150.234 19.2287Z" fill="#B8F8FF"/>
<path d="M148.752 17.9883V20.7629C148.752 21.5898 148.262 22.3514 147.453 22.7758L129.335 32.1984C127.583 33.1124 125.39 31.9917 125.39 30.1855V27.4109C125.39 26.584 125.88 25.8224 126.688 25.398L144.807 15.9754C146.559 15.0614 148.752 16.1821 148.752 17.9883Z" fill="#1C5360"/>
<path d="M107.541 105.514L111.452 108.956C111.882 108.66 112.339 108.387 112.823 108.137L165.799 81.1451C169.235 79.3966 173.454 79.381 176.899 81.1138L299.321 142.489C300.35 143.005 301.237 143.637 301.984 144.339L300.534 136.042C300.534 136.042 313.119 148.39 302.687 157.265C301.888 158.179 300.894 158.99 299.682 159.654L246.925 188.519C243.401 190.447 238.98 190.494 235.403 188.652L112.752 125.403C111.276 124.638 110.098 123.654 109.202 122.53C103.867 116.153 107.514 105.514 107.514 105.514H107.541Z" fill="#1C5360"/>
<path d="M164.982 73.4799L112.005 100.472C104.509 104.289 104.482 113.882 111.952 117.738L230.798 179.02C236.713 182.072 244.042 181.986 249.869 178.801L298.882 151.989C306.159 148.008 305.956 138.555 298.513 134.816L176.09 73.4409C172.645 71.7158 168.427 71.7236 164.99 73.4721L164.982 73.4799Z" fill="#7BDEEF"/>
<path d="M114.369 81.0124L116.461 111.501C116.61 113.632 117.946 115.56 120.029 116.629L168.181 141.326C169.191 141.849 170.316 142.13 171.45 142.177C172.795 142.232 174.157 141.943 175.361 141.326L209.135 123.904C211.015 122.936 212.298 121.258 212.624 119.346L217.238 92.0495L192.981 77.7341L168.198 63.1063L114.352 81.0202L114.369 81.0124Z" fill="#F23E30"/>
<path d="M171.45 142.169C172.795 142.224 174.157 141.935 175.361 141.319L209.135 123.896C211.015 122.929 212.298 121.25 212.624 119.338L217.238 92.0417L192.981 77.7263L175.027 86.3905L171.441 142.177L171.45 142.169Z" fill="#F77A74"/>
<path d="M112.19 75.9153C112.111 76.6959 112.445 77.9135 112.867 79.1234C113.64 77.6325 114.941 76.3134 116.76 75.4001L157.635 54.848C160.535 53.3883 164.085 53.4039 166.968 54.8948L217.071 80.708C218.609 81.5041 219.769 82.5891 220.551 83.8224C220.955 82.7999 221.289 81.7071 221.465 80.6377C221.465 80.6377 225.27 87.8111 218.855 94.0634L218.442 94.2819C218.029 94.5863 217.572 94.8751 217.088 95.1249L176.521 116.067C173.594 117.574 169.982 117.574 167.065 116.052L116.654 89.8483C116.189 89.6063 115.749 89.3332 115.354 89.0365L115.195 88.9507C109.342 84.6186 112.207 75.9153 112.207 75.9153H112.19Z" fill="#B52E24"/>
<path d="M217.079 89.739L176.512 110.681C173.585 112.188 169.973 112.188 167.055 110.666L116.645 84.4624C110.397 81.2153 110.467 73.1833 116.759 70.0142L157.634 49.4621C160.534 48.0024 164.085 48.018 166.967 49.5089L217.07 75.3221C223.301 78.5302 223.301 86.5231 217.07 89.739H217.079Z" fill="#FC624E"/>
<path d="M125.97 83.4555L149.47 95.6713L166.546 104.546C168.892 105.764 171.801 105.772 174.157 104.554L206.814 87.7018C211.824 85.1181 211.824 78.6785 206.814 76.0948L166.484 55.3163C165.368 54.7387 164.12 54.4421 162.872 54.4109C161.528 54.3796 160.183 54.6684 158.97 55.2773L126.066 71.8252C120.995 74.3698 120.943 80.8406 125.97 83.4555Z" fill="#661A1A"/>
<path d="M125.97 83.4555L149.47 95.6713L152.379 96.7173L162.864 90.9255V54.4109C161.519 54.3796 160.174 54.6684 158.962 55.2773L126.058 71.8252C120.987 74.3698 120.934 80.8406 125.961 83.4555H125.97Z" fill="#B54343"/>
<path d="M128.879 100.214L124.651 98.1301C123.746 97.6852 122.639 98.2628 122.639 99.176V114.241C122.639 114.662 122.885 115.053 123.289 115.271L127.516 117.535C128.422 118.019 129.564 117.441 129.564 116.505V101.26C129.564 100.823 129.301 100.425 128.87 100.214H128.879Z" fill="#661A1A"/>
<path d="M140.981 106.279L136.753 104.195C135.848 103.75 134.741 104.328 134.741 105.241V120.306C134.741 120.727 134.987 121.118 135.391 121.336L139.618 123.6C140.524 124.084 141.666 123.506 141.666 122.569V107.325C141.666 106.888 141.402 106.49 140.972 106.279H140.981Z" fill="#661A1A"/>
<path d="M154.014 113.304L149.787 111.22C148.881 110.775 147.774 111.353 147.774 112.266V127.331C147.774 127.752 148.02 128.143 148.424 128.361L152.651 130.625C153.557 131.109 154.699 130.531 154.699 129.595V114.35C154.699 113.913 154.436 113.515 154.005 113.304H154.014Z" fill="#661A1A"/>
<path d="M131.05 101.174L126.822 99.0902C125.917 98.6453 124.81 99.2229 124.81 100.136V115.201C124.81 115.622 125.056 116.013 125.46 116.231L129.687 118.495C130.593 118.979 131.735 118.401 131.735 117.465V102.22C131.735 101.783 131.471 101.385 131.041 101.174H131.05Z" fill="#AD211A"/>
<path d="M143.151 107.239L138.924 105.155C138.019 104.71 136.911 105.288 136.911 106.201V121.266C136.911 121.687 137.157 122.078 137.562 122.296L141.789 124.56C142.694 125.044 143.837 124.466 143.837 123.53V108.285C143.837 107.848 143.573 107.45 143.142 107.239H143.151Z" fill="#AD211A"/>
<path d="M156.184 114.272L151.957 112.188C151.052 111.743 149.945 112.321 149.945 113.234V128.299C149.945 128.72 150.191 129.111 150.595 129.329L154.822 131.593C155.727 132.077 156.87 131.499 156.87 130.562V115.318C156.87 114.881 156.606 114.483 156.176 114.272H156.184Z" fill="#AD211A"/>
<path d="M151.746 84.7278C152.819 85.2586 153.97 85.7269 155.165 86.1562C157.432 87.2178 159.963 87.9203 162.67 88.1857C162.872 88.2247 163.075 88.2638 163.268 88.3106C168.761 89.3956 173.682 87.6549 177.549 84.7746C177.725 84.6654 177.892 84.5483 178.059 84.439C178.147 84.3844 178.226 84.3219 178.305 84.2673C178.472 84.1502 178.639 84.0253 178.797 83.9004C178.876 83.838 178.955 83.7833 179.025 83.7209C179.105 83.6585 179.184 83.596 179.263 83.5336C179.597 83.2682 179.913 82.9872 180.221 82.6984C180.291 82.6359 180.353 82.5735 180.423 82.511C180.484 82.4564 180.537 82.4017 180.59 82.3471C180.66 82.2769 180.73 82.2066 180.801 82.1363C181.267 81.668 181.697 81.1763 182.093 80.6611C182.145 80.5987 182.189 80.5362 182.242 80.466C182.383 80.2786 182.523 80.0913 182.655 79.8961C182.699 79.8337 182.743 79.7712 182.778 79.7088C182.892 79.5449 182.998 79.381 183.095 79.2092C183.253 78.9595 183.402 78.7019 183.534 78.4365C183.622 78.2726 183.71 78.1086 183.789 77.9369C184.624 76.5944 185.274 75.2362 185.731 73.9717C187.12 70.0455 186.329 67.0637 184.843 64.402C183.675 62.3023 182.066 60.4055 180.766 58.3995C179.368 56.2451 175.695 55.168 172.223 54.6372C171.942 54.5982 171.652 54.5513 171.38 54.5201C170.87 54.4498 170.369 54.3952 169.886 54.3484C169.314 54.2937 168.769 54.2547 168.268 54.2235C166.238 54.0986 164.788 54.1298 164.788 54.1298C164.788 54.1298 163.769 54.6138 162.345 55.1758C162.257 55.207 162.178 55.2382 162.09 55.2773C160.675 55.449 159.304 55.7456 157.995 56.1515C157.371 56.3466 156.764 56.5574 156.176 56.7994C156.035 56.854 155.903 56.9086 155.771 56.9711C155.367 56.9867 155.007 56.9633 154.699 56.8852C153.566 56.6042 152.071 57.0725 150.516 58.4541C150.217 58.7117 149.927 59.0083 149.628 59.3284C148.793 60.2494 147.95 61.4281 147.15 62.9033C146.034 64.9562 144.997 67.5633 144.153 70.8026C142.387 77.5935 146.016 81.91 151.738 84.72L151.746 84.7278Z" fill="#E26F6F"/>
<path d="M151.746 84.7278C152.819 85.2586 153.97 85.727 155.165 86.1563C157.432 87.2178 159.963 87.9203 162.67 88.1857C162.872 88.2247 163.075 88.2638 163.268 88.3106C168.761 89.3956 173.682 87.6549 177.549 84.7747C177.725 84.6654 177.892 84.5483 178.059 84.439C178.147 84.3844 178.226 84.322 178.305 84.2673C178.472 84.1502 178.639 84.0253 178.797 83.9004C178.876 83.838 178.955 83.7834 179.025 83.7209C179.105 83.6585 179.184 83.596 179.263 83.5336C179.597 83.2682 179.913 82.9872 180.221 82.6984C180.291 82.6359 180.353 82.5735 180.423 82.5111C180.484 82.4564 180.537 82.4018 180.59 82.3471C180.66 82.2769 180.73 82.2066 180.801 82.1364C181.267 81.668 181.697 81.1763 182.093 80.6611C182.145 80.5987 182.189 80.5362 182.242 80.466C182.383 80.2787 182.523 80.0913 182.655 79.8962C182.699 79.8337 182.743 79.7713 182.778 79.7088C182.892 79.5449 182.998 79.381 183.095 79.2093C183.253 78.9595 183.402 78.7019 183.534 78.4365C183.622 78.2726 183.71 78.1087 183.789 77.9369C184.624 76.5944 185.274 75.2362 185.731 73.9717C187.12 70.0455 186.329 67.0638 184.843 64.402C184.738 65.206 184.536 66.3378 184.149 67.6492C183.921 68.4219 183.631 69.2649 183.262 70.1391C183.191 70.3031 183.121 70.467 183.042 70.6309C182.708 71.3646 182.321 72.114 181.864 72.8711C178.199 78.9595 170.184 85.4382 152.678 84.3063C152.678 84.3063 152.318 84.4624 151.729 84.72L151.746 84.7278Z" fill="#C13333"/>
<path d="M150.525 58.4619C150.806 58.8678 151.114 59.2893 151.368 59.6327C151.579 59.9137 151.755 60.1323 151.843 60.2572C151.887 60.3118 151.913 60.3508 151.913 60.3508L152.845 59.8903L153.091 59.7654L157.362 57.6579L157.503 57.5877C157.582 57.5565 159.586 57.3457 162.415 57.4003C163.602 57.4237 164.929 57.4862 166.326 57.6345C166.537 57.6579 166.748 57.6813 166.968 57.7047C168.444 57.8843 169.973 58.1497 171.476 58.5478C171.854 58.6492 172.223 58.7507 172.592 58.8678C172.601 58.8678 172.61 58.8678 172.619 58.8756C173.796 59.2424 174.939 59.6952 176.002 60.2572C176.864 60.7099 177.663 61.2329 178.393 61.8339C178.656 62.0447 178.902 62.271 179.149 62.513C181.091 64.4254 182.295 67.0403 182.145 70.5918C182.119 71.3177 182.031 72.0905 181.882 72.8945C181.6 74.4322 181.091 76.126 180.317 77.9837C180.317 77.9837 181.486 78.2569 183.2 78.4209C183.314 78.4287 183.428 78.4443 183.552 78.4521C183.639 78.2881 183.727 78.1242 183.806 77.9525C184.641 76.6099 185.292 75.2517 185.749 73.9872C187.137 70.061 186.346 67.0793 184.861 64.4176C183.692 62.3179 182.084 60.4211 180.783 58.4151C179.386 56.2607 175.712 55.1835 172.241 54.6528C171.96 54.6137 171.67 54.5669 171.397 54.5357C170.887 54.4654 170.386 54.4108 169.903 54.364C169.332 54.3093 168.787 54.2703 168.286 54.239C166.256 54.1142 164.806 54.1454 164.806 54.1454C164.806 54.1454 163.786 54.6293 162.363 55.1913C162.275 55.2226 162.196 55.2538 162.108 55.2928C160.693 55.4646 159.322 55.7612 158.012 56.1671C157.388 56.3622 156.782 56.5729 156.193 56.8149C156.053 56.8695 155.921 56.9242 155.789 56.9866C155.385 57.0022 155.024 56.9788 154.717 56.9008C153.583 56.6198 152.089 57.0881 150.534 58.4697L150.525 58.4619Z" fill="#C13333"/>
<path d="M164.332 65.7134C164.332 65.7134 164.376 65.7602 164.455 65.8461C164.674 65.8461 164.797 65.8461 164.797 65.8461L164.332 65.7056V65.7134Z" fill="#499FAD"/>
<g opacity="0.29">
<path d="M148.943 65.0736C153.978 67.306 154.277 68.3988 152.151 69.1247C150.024 69.8506 147.677 73.3475 150.841 75.4707C151.773 76.0951 153.065 76.6962 154.444 77.1489C156.633 77.867 159.049 78.2105 160.596 77.6407C161.405 77.344 161.967 76.8054 162.143 75.9468C162.169 75.7985 162.204 75.6502 162.231 75.5253C162.908 72.5826 163.593 74.6355 166.81 76.0639C170.167 77.5548 178.112 80.2711 176.688 74.9555C176.565 74.5028 176.538 74.0969 176.591 73.7534C177.048 70.6858 183.499 71.2712 184.342 69.1715C184.527 68.711 184.448 68.1256 183.973 67.345C181.108 62.5836 177.364 61.1162 175.431 62.4509C175.352 62.5056 175.282 62.5524 175.229 62.5836C173.884 63.372 178.252 58.5715 175.159 56.7372C174.939 56.6045 174.719 56.4718 174.499 56.3391C171.52 54.5048 168.769 52.5066 167.003 55.5585C166.115 57.0963 166.124 59.2662 166.379 61.1396C166.651 63.1534 167.223 64.8238 167.275 64.9877C167.126 64.7614 164.718 61.1161 162.609 61.1552C160.438 61.1942 159.893 58.8057 157.098 58.8057C155.42 58.8057 151.017 60.2575 148.837 61.8967C147.378 62.9973 146.921 64.1837 148.943 65.0736Z" fill="#C13333"/>
<path d="M148.846 61.8964C149.127 61.9432 149.435 61.9745 149.76 61.9901C152.397 62.1306 167.284 64.9953 167.284 64.9953C167.398 62.8956 166.985 61.7793 166.379 61.1315C166.66 63.2078 167.258 64.9172 167.284 64.9875C167.205 64.8704 164.753 61.1081 162.618 61.1471C160.447 61.1861 159.902 58.7976 157.107 58.7976C155.429 58.7976 151.026 60.2494 148.846 61.8886V61.8964Z" fill="#C13333"/>
<path d="M166.379 61.1314C166.652 63.1452 167.223 64.8156 167.276 64.9796V64.9874C167.276 64.9874 170.694 61.0221 172.408 59.0941C173.718 57.6111 174.298 57.0256 174.491 56.3309C171.512 54.4966 168.761 52.4984 166.994 55.5504C166.107 57.0881 166.116 59.2581 166.37 61.1314H166.379Z" fill="#C13333"/>
<path d="M154.453 77.1485C156.642 77.8666 159.058 78.2101 160.605 77.6403L162.24 75.5171C162.916 72.5744 163.602 74.6273 166.818 76.0557C170.176 77.5466 178.12 80.263 176.697 74.9473C176.574 74.4946 176.547 74.0887 176.6 73.7452C176.292 73.6438 175.932 73.5423 175.519 73.433C171.819 72.4573 168.963 69.6551 168.348 69.015C166.634 68.9994 158.979 69.0541 157.055 71.505C155.209 73.8467 154.594 75.5874 154.453 77.1563V77.1485Z" fill="#C13333"/>
<path d="M168.348 69.015C168.348 69.015 153.328 67.3681 148.67 74.3931C148.67 74.3931 152.335 78.1008 154.462 76.4538C156.589 74.8068 154.198 70.1078 168.348 69.015Z" fill="#C13333"/>
</g>
<path d="M158.584 75.5016L161.686 75.9153C161.686 75.9153 159.05 80.7391 159.05 81.8397C159.05 82.9403 152.063 82.2535 152.063 82.2535C152.063 82.2535 149.584 78.8112 158.584 75.5016Z" fill="#FCA2A2"/>
<path d="M155.93 77.5622L157.494 77.773C157.494 77.773 156.158 80.2083 156.158 80.7703C156.158 81.3323 152.625 80.9811 152.625 80.9811C152.625 80.9811 151.369 79.2404 155.921 77.57L155.93 77.5622Z" fill="#FFDCDC"/>
<path d="M158.004 56.1593C158.021 56.3544 158.03 56.4559 158.03 56.4559C158.03 56.4559 159.77 56.1593 162.336 56.1202C163.602 56.1046 165.078 56.1514 166.634 56.331C167.073 56.3856 167.53 56.4481 167.987 56.5183C169.288 56.7291 170.624 57.0413 171.951 57.494C172.425 57.6579 172.891 57.8297 173.357 58.0248C174.332 58.4385 175.29 58.9381 176.204 59.5391C177.531 60.4133 178.762 61.5061 179.816 62.8487C181.302 64.7532 182.435 67.1808 182.998 70.264C183.015 70.3889 183.042 70.506 183.059 70.6308C183.429 72.8711 183.499 75.4391 183.2 78.3974C183.174 78.6628 183.138 78.9282 183.112 79.1936C183.27 78.9438 183.42 78.6863 183.552 78.4209C183.639 78.257 183.727 78.093 183.806 77.9213C184.641 76.5787 185.292 75.2205 185.749 73.956C187.137 70.0298 186.346 67.0481 184.861 64.3864C183.692 62.2866 182.084 60.3899 180.783 58.3838C179.386 56.2295 175.712 55.1523 172.241 54.6215C172.074 54.2078 171.766 53.8332 171.265 53.5366C171.046 53.4039 170.826 53.2712 170.606 53.1385C167.627 51.3042 164.876 49.3059 163.11 52.3579C162.644 53.1619 162.424 54.1376 162.354 55.1601C162.266 55.1913 162.187 55.2226 162.099 55.2616C160.684 55.4333 159.313 55.7299 158.004 56.1358V56.1593Z" fill="#9E2525"/>
<path d="M145.05 61.9045C145.876 62.2713 146.57 62.6069 147.15 62.9114C147.335 63.0128 147.51 63.1066 147.677 63.2002C149.277 64.1135 149.743 64.7691 149.4 65.2765C149.224 65.5419 148.829 65.7604 148.257 65.9556C146.711 66.4786 145.059 68.469 145.472 70.3267C145.63 71.0292 146.078 71.7161 146.948 72.3015C147.598 72.7308 148.416 73.1602 149.33 73.527C149.347 73.527 149.365 73.5427 149.374 73.5427C149.479 73.5817 149.584 73.6285 149.69 73.6675C149.971 73.7768 150.261 73.8783 150.56 73.972C152.072 74.4715 153.689 74.7837 155.06 74.7447C155.227 74.7447 155.394 74.7291 155.552 74.7135C155.974 74.6745 156.36 74.5886 156.712 74.4637C157.52 74.1671 158.083 73.6285 158.259 72.7699C158.285 72.6216 158.32 72.4733 158.347 72.3484C158.478 71.7708 158.61 71.3805 158.768 71.1463C158.935 70.8887 159.12 70.8107 159.357 70.8575C160.016 70.9824 161.027 72.044 162.925 72.887C166.142 74.3154 173.551 76.86 172.935 72.4186C172.909 72.2157 172.865 72.0049 172.803 71.7786C172.68 71.3259 172.654 70.9199 172.707 70.5765C173.164 67.5089 179.614 68.0943 180.458 65.9946C180.643 65.5341 180.564 64.9487 180.089 64.1681C179.685 63.5046 179.272 62.9036 178.841 62.365C178.692 62.1777 178.542 61.9981 178.384 61.8186C177.637 60.9678 176.873 60.3043 176.126 59.8204C174.851 58.993 173.621 58.6808 172.628 58.8525C172.61 58.8525 172.601 58.8525 172.584 58.8525C172.197 58.9227 171.846 59.0632 171.547 59.274C171.468 59.3286 171.397 59.3754 171.345 59.4067C170.87 59.6799 171.107 59.2662 171.476 58.5324C171.626 58.2358 171.802 57.8768 171.96 57.4943C172.276 56.7138 172.522 55.8161 172.364 55.0199C172.338 54.8872 172.303 54.7623 172.25 54.6374C172.083 54.2237 171.775 53.8491 171.274 53.5524C171.055 53.4198 170.835 53.287 170.615 53.1544C167.636 51.32 164.885 49.3218 163.119 52.3738C162.653 53.1778 162.433 54.1535 162.363 55.176C162.345 55.4883 162.336 55.8083 162.345 56.1205C162.345 56.5498 162.38 56.9713 162.424 57.385C162.442 57.5802 162.468 57.7675 162.495 57.9548C162.503 58.0173 162.512 58.0875 162.521 58.15C162.539 58.2749 162.556 58.392 162.583 58.509C162.591 58.5715 162.6 58.6339 162.618 58.6886C162.618 58.7276 162.627 58.7588 162.635 58.7978C162.662 58.954 162.697 59.1023 162.723 59.2506C162.741 59.3364 162.758 59.4223 162.776 59.5081C162.846 59.8204 162.908 60.1014 162.978 60.359C162.996 60.4292 163.013 60.4995 163.031 60.5619C163.04 60.6088 163.048 60.6478 163.066 60.6868C163.075 60.7258 163.083 60.7649 163.101 60.8039C163.127 60.9132 163.163 61.0068 163.189 61.0927C163.189 61.1239 163.207 61.1473 163.215 61.1785C163.215 61.1864 163.215 61.1942 163.215 61.202C163.312 61.522 163.382 61.7328 163.4 61.7796C163.4 61.7796 163.391 61.7561 163.382 61.7483C163.356 61.7093 163.312 61.6391 163.242 61.5454C163.233 61.5298 163.224 61.5142 163.207 61.4986C163.136 61.3971 163.048 61.28 162.952 61.1395C162.811 60.96 162.653 60.7492 162.468 60.5229C162.424 60.4682 162.372 60.4136 162.328 60.3512C162.038 60.0077 161.704 59.6409 161.335 59.2974C161.308 59.2662 161.273 59.2427 161.247 59.2115C161.062 59.0398 160.869 58.8837 160.675 58.7354C160.64 58.712 160.614 58.6886 160.579 58.6652C160.535 58.6339 160.5 58.6027 160.456 58.5793C160.421 58.5558 160.394 58.5325 160.359 58.5169C160.166 58.392 159.972 58.2827 159.779 58.1968C159.753 58.1812 159.726 58.1734 159.7 58.1578C159.375 58.0251 159.058 57.947 158.742 57.947C158.215 57.9548 157.784 57.8221 157.389 57.6114C156.976 57.385 156.598 57.0806 156.211 56.7762C155.455 56.1907 154.629 55.5975 153.232 55.5975C151.553 55.5975 147.15 57.0494 144.971 58.6886C143.512 59.7891 143.055 60.9756 145.076 61.8654L145.05 61.9045Z" fill="#1C5360"/>
<path d="M144.953 58.7273C145.234 58.7741 145.542 58.8053 145.867 58.8209C148.504 58.9614 163.391 61.8261 163.391 61.8261C163.505 59.7264 163.092 58.6102 162.486 57.9623C162.767 60.0386 163.365 61.7481 163.391 61.8183C163.312 61.7012 160.86 57.9389 158.724 57.978C156.554 58.017 156.009 55.6285 153.214 55.6285C151.536 55.6285 147.133 57.0803 144.953 58.7195V58.7273Z" fill="#499FAD"/>
<path d="M162.336 56.128C162.336 56.5574 162.372 56.9789 162.415 57.3926C162.433 57.5877 162.459 57.775 162.486 57.9623C162.495 58.0248 162.503 58.095 162.512 58.1575C162.53 58.2824 162.547 58.3995 162.574 58.5166C162.582 58.579 162.591 58.6414 162.609 58.6961C162.609 58.7351 162.618 58.7663 162.626 58.8054C162.653 58.9615 162.688 59.1097 162.714 59.2581C162.732 59.3439 162.749 59.4298 162.767 59.5157C162.837 59.8279 162.899 60.1089 162.969 60.3665C162.987 60.4367 163.004 60.5069 163.022 60.5694C163.031 60.6162 163.039 60.6553 163.057 60.6943C163.066 60.7333 163.075 60.7724 163.092 60.8114C163.118 60.9207 163.154 61.0144 163.18 61.1002C163.18 61.1314 163.198 61.1548 163.206 61.1861C163.206 61.1939 163.206 61.2017 163.206 61.2095C163.303 61.5295 163.373 61.7403 163.391 61.7871C163.409 61.7715 163.532 61.6232 163.725 61.3968C164.226 60.8192 165.219 59.6718 166.238 58.5009C166.484 58.2199 166.722 57.9389 166.959 57.6735C167.319 57.2598 167.671 56.8618 167.987 56.5027C168.181 56.2841 168.356 56.0812 168.515 55.9017C169.112 55.2226 169.56 54.7308 169.886 54.3327C169.973 54.2312 170.044 54.1376 170.114 54.0439C170.36 53.7083 170.518 53.4351 170.597 53.1385C167.618 51.3042 164.867 49.3059 163.101 52.3579C162.635 53.1619 162.415 54.1376 162.345 55.1601C162.328 55.4723 162.319 55.7924 162.327 56.1046L162.336 56.128Z" fill="#499FAD"/>
<path d="M150.56 73.9795C152.748 74.6976 155.165 75.0411 156.712 74.4713L158.347 72.3481C159.023 69.4054 159.709 71.4583 162.926 72.8867C166.283 74.3776 174.227 77.094 172.804 71.7783C172.681 71.3256 172.654 70.9197 172.707 70.5762C172.399 70.4748 172.039 70.3733 171.626 70.264C167.926 69.2883 165.07 66.4861 164.455 65.846C162.741 65.8304 155.086 65.8851 153.162 68.336C151.316 70.6777 150.701 72.4184 150.56 73.9873V73.9795Z" fill="#2E7A87"/>
<path d="M164.454 65.846C164.454 65.846 149.435 64.199 144.777 71.2241C144.777 71.2241 148.442 74.9317 150.569 73.2848C152.695 71.6378 150.305 66.9388 164.454 65.846Z" fill="#499FAD"/>
<path d="M195.521 53.0371C195.987 54.9651 197.692 55.933 199.397 55.2383C201.102 54.5514 201.26 54.965 202.033 55.7924C202.807 56.6198 204.512 57.5877 205.909 57.0335C207.306 56.4793 210.875 55.3788 211.499 55.5193C212.123 55.6598 217.395 59.6562 217.703 59.6562C218.011 59.6562 227.634 67.9223 227.942 63.7932C228.065 62.2008 228.337 61.6935 228.785 61.5686C229.488 61.3657 230.604 62.1384 232.134 61.0378C232.406 60.8349 232.626 60.6163 232.775 60.3821C234.023 58.54 231.896 55.8237 230.64 55.2695C232.195 55.8783 246.055 61.1315 245.633 56.7604C245.167 51.9365 239.894 46.2852 230.271 50.0085C228.645 50.6329 227.256 51.1637 226.07 51.6164C220.638 53.6615 219.417 53.9737 219.276 54.005C219.549 53.9191 223.433 52.5999 225.138 49.7587C225.604 48.9938 225.903 48.1195 225.938 47.1204C226.078 42.8742 222.001 34.4675 221.025 32.5083C220.99 32.4381 220.964 32.3834 220.937 32.3288C220.858 32.1727 220.814 32.0946 220.814 32.0946C220.814 32.0946 220.744 32.1805 220.647 32.3366C220.155 33.0859 218.784 35.5213 219.426 38.706C220.199 42.562 220.515 43.5298 219.584 43.5298C218.652 43.5298 216.482 45.1846 216.947 46.6989C217.413 48.2132 218.186 49.3138 217.571 49.7275C217.316 49.8992 216.938 50.0865 216.605 50.2973C216.455 50.3988 216.315 50.5003 216.2 50.6095C216.148 49.1655 215.691 46.1603 214.935 44.3494C213.845 41.7345 205.311 36.7702 205.311 36.7702C205.311 36.7702 203.607 37.7381 205.004 40.9072C206.401 44.0762 208.88 44.4899 208.572 45.4578C208.264 46.4257 206.243 47.7995 207.799 48.4864C209.354 49.1733 211.832 49.868 212.14 50.8281C212.421 51.6945 211.692 52.5609 211.771 52.8263C211.367 52.5375 209.583 51.4759 207.175 50.6876C204.23 49.7197 195.073 51.1013 195.539 53.0293L195.521 53.0371Z" fill="#1C5360"/>
<path d="M177.039 101.572C177.03 101.83 177.118 102.072 177.285 102.275C177.426 102.439 177.61 102.571 177.83 102.65L187.453 97.8257C189.158 94.9298 216.473 77.7028 221.122 69.2962C225.164 61.9901 222.879 58.3293 215.084 55.3241C214.223 54.9885 213.3 54.6685 212.307 54.3484C211.947 54.2313 211.569 54.1142 211.191 53.9972C200.329 50.6876 188.534 74.2527 182.488 86.7964C181.609 88.6151 180.871 90.223 180.256 91.6358C178.41 95.8509 177.619 98.3955 177.276 99.9566C177.25 100.081 177.224 100.199 177.206 100.308C177.101 100.854 177.057 101.26 177.048 101.565L177.039 101.572Z" fill="#FFA64A"/>
<path d="M177.285 102.275C177.426 102.439 177.61 102.571 177.83 102.65L187.453 97.8257C189.158 94.9298 216.473 77.7028 221.122 69.2962C225.164 61.9901 222.879 58.3293 215.084 55.3241C215.91 56.8852 216.763 59.7967 214.135 62.958C210.259 67.6414 205.76 68.8824 202.649 74.2605C199.546 79.6386 195.047 87.7642 192.41 89.419C189.774 91.0738 185.74 92.0339 183.253 94.2429C181.504 95.7962 178.744 99.9566 177.276 102.275H177.285Z" fill="#FF7E2B"/>
<path d="M200.847 66.0334C201.392 66.2519 201.471 66.5095 200.847 66.0334Z" fill="#FFC38D"/>
<path d="M192.551 76.5242C192.77 77.1642 193.131 77.5701 193.35 77.7028C193.552 77.8199 193.174 77.1252 192.551 76.5242Z" fill="#FFC38D"/>
<path d="M177.197 100.308C177.197 100.308 177.197 100.308 177.197 100.316C177.47 100.464 184.501 87.2178 184.501 87.2178C184.501 87.2178 186.83 87.2178 184.808 86.3904C182.787 85.5631 187.752 79.6386 189.466 76.7427C190.442 75.0879 191.716 75.728 192.551 76.532C192.305 75.8138 192.234 74.8069 192.727 73.5736C193.658 71.232 196.453 66.6813 198.624 65.9944C199.599 65.6822 200.39 65.8461 200.847 66.0334C200.83 66.0178 200.812 66.0022 200.794 65.9944C199.555 65.0265 202.658 62.6848 204.362 58.9693C205.804 55.8237 210.804 54.645 212.307 54.3562C211.947 54.2392 211.569 54.1221 211.191 54.005C200.329 50.6954 188.535 74.2606 182.488 86.8042C181.609 88.6229 180.871 90.2308 180.256 91.6437C178.727 95.7104 177.584 98.9341 177.277 99.9644C177.215 100.167 177.189 100.284 177.197 100.308Z" fill="#FFC38D"/>
<path d="M210.409 78.257C210.409 78.257 211.033 71.7783 209.169 70.5372C207.306 69.2961 200.328 67.095 200.328 67.095C200.328 67.095 209.486 69.9908 210.417 78.257H210.409Z" fill="#FF7E2B"/>
<path d="M198.773 88.5916C198.773 88.5916 199.397 82.113 197.534 80.8719C195.671 79.6308 188.693 77.4296 188.693 77.4296C188.693 77.4296 197.85 80.3255 198.782 88.5916H198.773Z" fill="#FF7E2B"/>
<path d="M197.692 75.3612C197.692 75.3612 202.816 74.9475 204.828 77.1564C206.849 79.3576 207.465 80.3256 207.465 80.3256C207.465 80.3256 201.102 76.6023 197.692 75.3612Z" fill="#FF7E2B"/>
<path d="M208.088 57.9935C208.088 57.9935 213.212 57.5798 215.225 59.7888C217.246 61.99 217.861 62.958 217.861 62.958C217.861 62.958 211.498 59.2346 208.088 57.9935Z" fill="#FF7E2B"/>
<path d="M183.103 87.491C183.103 87.491 188.227 87.0773 190.239 89.2863C192.252 91.4953 192.876 92.4553 192.876 92.4553C192.876 92.4553 186.513 88.7321 183.103 87.491Z" fill="#FF7E2B"/>
<path d="M217.264 56.4091C217.264 56.4091 225.771 58.821 228.407 62.4038C231.044 65.9865 233.997 69.8425 233.997 70.8104C233.997 71.7783 234.621 75.9075 231.668 73.7063C228.724 71.5051 229.031 68.7419 225.463 68.7419C221.895 68.7419 220.656 69.0151 220.498 66.8139C220.34 64.6127 221.464 62.8331 219.812 61.5842C218.169 60.3353 215.269 60.0543 217.264 56.4091Z" fill="#499FAD"/>
<path d="M228.785 61.5607C229.488 61.3578 230.604 62.1306 232.134 61.03C232.406 60.827 232.626 60.6084 232.775 60.3743C234.023 58.5321 231.896 55.8158 230.64 55.2616C232.195 55.8704 246.055 61.1236 245.633 56.7525C245.167 51.9286 239.894 46.2774 230.271 50.0006C228.645 50.6251 227.256 51.1559 226.07 51.6086C226.333 51.5539 235.719 49.6182 237.407 51.3822C239.112 53.1775 238.18 53.7239 235.385 53.5834C232.591 53.4429 227.318 52.0691 228.091 54.1376C228.864 56.2061 227.001 56.6198 226.535 57.7204C226.07 58.8132 223.108 60.4601 228.776 61.5607H228.785Z" fill="#2E7A87"/>
<path d="M216.578 50.2973C216.895 50.3285 218.899 50.5158 220.182 50.1412C221.579 49.7275 220.806 48.3459 221.271 45.731C221.737 43.1161 223.293 44.9036 223.75 42.2887C224.207 39.7051 221.658 36.4579 221.008 32.5005C220.999 32.4381 220.99 32.3834 220.981 32.321H220.92L220.63 32.3287C220.138 33.0781 218.767 35.5135 219.408 38.6982C220.182 42.5541 220.498 43.522 219.566 43.522C218.635 43.522 216.464 45.1768 216.93 46.6911C217.396 48.2054 218.169 49.306 217.554 49.7197C217.299 49.8914 216.921 50.0787 216.587 50.2895L216.578 50.2973Z" fill="#2E7A87"/>
<path d="M195.266 107.63C196.637 106.958 197.393 105.6 197.182 104.226L190.53 61.2018C190.248 59.3675 189.009 57.7517 187.181 56.8618L159.656 43.4362C157.09 42.1873 153.908 42.5932 151.843 44.4275L129.415 64.3474L144.935 57.3224L154.146 51.7023C156.123 50.4925 158.68 50.3442 160.825 51.2965L178.41 59.1567C180.291 59.9997 181.6 61.5842 181.943 63.4264L189.677 105.241C190.099 107.544 192.973 108.777 195.266 107.637V107.63Z" fill="#661A1A"/>
<path d="M135.004 85.8363C135.461 86.773 136.076 87.7018 136.832 88.5995C137.131 88.9507 137.439 89.302 137.781 89.6532C146.06 93.9697 156.114 99.1214 161.958 102.103C167.284 102.142 176.705 99.1136 178.533 97.8959C180.396 96.6548 183.499 90.1762 183.499 90.1762L182.216 89.4971L180.396 88.5292C180.396 88.5292 174.034 91.0114 172.329 90.8709C171.037 90.7694 163.883 86.0158 160.306 83.1355C159.172 82.2223 158.39 81.4885 158.285 81.1607C157.819 79.7791 148.512 65.729 146.957 64.2069C145.401 62.6927 140.436 59.1099 140.436 59.1099L135.47 49.7354L130.039 54.5592L130.109 55.3007L130.197 56.1672L130.698 61.2564L130.812 62.4117C130.768 62.5131 130.724 62.6146 130.689 62.7083C125.469 75.2597 130.9 77.336 135.004 85.8363Z" fill="#FEC166"/>
<path d="M125.856 83.2916C127.675 84.3219 130.707 85.9689 134.38 87.8969C135.734 88.5916 137.79 89.6922 137.79 89.6922C137.79 89.6922 136.85 88.6852 136.824 88.5994C136.349 86.8275 131.181 67.3681 132.517 61.7169L132.051 61.99C132.051 61.99 131.498 62.2398 130.68 62.7004C130.452 62.8331 130.206 62.9736 129.942 63.1375C127.684 64.5347 124.388 67.1027 124.283 70.2562C124.133 74.9552 123.984 80.7001 125.838 83.2916H125.856Z" fill="#C65414"/>
<path d="M135.004 85.8362C135.461 86.7729 136.076 87.7018 136.832 88.5994C137.131 88.9507 137.439 89.3019 137.781 89.6532C146.06 93.9697 156.114 99.1214 161.958 102.103C167.284 102.142 176.705 99.1136 178.533 97.8959C180.396 96.6548 183.499 90.1762 183.499 90.1762L182.216 89.4971C173.902 99.98 164.595 91.4797 160.148 90.9411C155.648 90.3869 146.649 79.5059 145.559 77.2969C144.469 75.0879 139.504 72.7462 137.799 69.4445C136.094 66.1427 133.844 54.3718 133.844 54.3718L130.109 55.3006L129.96 55.3397C129.96 55.3397 130.065 55.6597 130.197 56.1671C130.549 57.455 131.102 59.9138 130.698 61.2563L130.812 62.4116C130.768 62.5131 130.724 62.6145 130.689 62.7082C125.469 75.2596 130.9 77.3359 135.004 85.8362Z" fill="#FF7E2B"/>
<path d="M135.47 49.7275V52.3423C135.47 52.3423 137.333 60.1948 138.265 60.6085C139.196 61.0222 142.606 62.8097 144.469 65.846C146.333 68.8824 148.196 73.6985 149.593 75.767C150.99 77.8355 158.9 83.073 159.524 83.2057C159.638 83.2291 159.919 83.1979 160.306 83.1199C159.172 82.2066 158.39 81.4729 158.285 81.1451C157.819 79.7635 148.512 65.7133 146.957 64.1913C145.401 62.677 140.436 59.0942 140.436 59.0942L135.47 49.7197V49.7275Z" fill="#FEC166"/>
<path d="M130.35 55.2762C129.381 54.6494 129.7 52.7937 131.063 51.1314C132.425 49.4691 134.316 48.6296 135.285 49.2564C136.254 49.8831 135.935 51.7388 134.572 53.4011C133.209 55.0635 131.319 55.903 130.35 55.2762Z" fill="#913636"/>
<path d="M224.357 78.4599C222.318 73.878 224.796 68.8746 231.73 65.4089C242.294 60.1323 259.58 60.226 270.144 65.6197C275.523 68.3673 278.106 72.0047 277.913 75.6265L278.3 75.6421L274.415 137.931H274.301C274.125 140.913 271.761 143.887 267.218 146.15C257.911 150.787 243.058 150.701 234.208 145.971C229.269 143.325 227.151 139.796 227.81 136.409L224.348 78.4677L224.357 78.4599Z" fill="#1C5360"/>
<path d="M230.306 67.7741C241.775 62.0448 260.538 62.1462 272.007 68.0083C283.476 73.8625 283.239 83.4478 271.489 89.302C259.73 95.1562 240.966 95.0547 229.788 89.0678C218.609 83.0809 218.837 73.5034 230.306 67.7741Z" fill="#1F7D87"/>
<path d="M279.987 69.4601C279.987 69.4601 281.191 77.3515 280.47 79.6932C279.75 82.0349 277.825 85.2353 275.909 86.5154C273.993 87.7955 272.64 82.6281 272.64 82.6281C272.64 82.6281 278.792 77.5545 278.792 74.9943C278.792 72.434 279.996 69.4523 279.996 69.4523L279.987 69.4601Z" fill="#1F7D87"/>
<path d="M222.036 70.2874C222.036 70.2874 221.412 77.7808 221.887 79.9117C222.37 82.0427 230.289 87.3739 230.289 87.3739L230.772 84.1736C230.772 84.1736 230.772 80.5518 230.535 80.3332C230.297 80.1147 221.94 75.5874 222.036 70.2796V70.2874Z" fill="#1F7D87"/>
<path d="M230.306 61.7559C241.775 56.0266 260.538 56.1281 272.007 61.9901C283.476 67.8443 283.239 77.4296 271.489 83.2838C259.73 89.138 240.966 89.0365 229.788 83.0496C218.609 77.0627 218.837 67.4852 230.306 61.7559Z" fill="#34ADC1"/>
<path d="M235.421 60.7958C244.192 56.4169 258.543 56.4949 267.314 60.9753C276.085 65.4558 275.9 72.7852 266.919 77.2578C257.928 81.7383 243.577 81.6602 235.026 77.0783C226.474 72.5042 226.65 65.1748 235.421 60.7958Z" fill="#73D5E0"/>
<path d="M273.747 69.2493V65.4089L228.847 64.7689L228.61 69.0307C228.61 69.0307 255.256 83.9551 273.747 69.2415V69.2493Z" fill="#73D5E0"/>
<path d="M235.421 57.1662C244.192 52.7872 258.543 52.8653 267.314 57.3457C276.085 61.8262 275.9 69.1556 266.919 73.6282C257.928 78.1086 243.577 78.0306 235.026 73.4487C226.474 68.8746 226.65 61.5451 235.421 57.1662Z" fill="#57D0DD"/>
<path d="M268.166 140.858C269.968 135.769 267.032 130.336 259.395 126.519C247.232 120.439 227.379 120.532 215.278 126.722C207.886 130.508 205.109 135.777 206.902 140.725C205.76 143.855 206.472 147.142 209.029 150.131C209.6 153.55 212.492 156.898 217.677 159.513C229.137 165.282 247.461 165.196 258.402 159.326C263.35 156.672 266.004 153.3 266.4 149.881C266.716 149.483 266.997 149.077 267.243 148.664C268.79 146.135 269.089 143.442 268.175 140.866L268.166 140.858Z" fill="#FF7E2B"/>
<path d="M267.534 142.56C269.335 137.47 266.4 132.038 258.763 128.221C246.6 122.14 226.747 122.234 214.645 128.424C207.254 132.209 204.477 137.478 206.27 142.427C205.127 145.557 205.839 148.843 208.396 151.833C208.396 151.833 213.749 131.936 250.326 142.7C257.005 144.667 262.348 147.329 266.611 150.357C268.158 147.828 268.456 145.135 267.542 142.56H267.534Z" fill="#FF7E2B"/>
<path d="M270.205 140.234C270.935 140.53 271.69 140.835 272.218 141.381C272.745 141.927 272.965 142.763 272.525 143.356C272.112 143.902 271.313 144.066 270.627 144.316C269.942 144.566 269.221 145.104 269.379 145.752C269.458 146.072 269.739 146.322 270.012 146.54C271.145 147.446 272.393 148.242 273.729 148.89C272.473 150.435 270.416 151.442 268.28 151.567C266.751 151.653 265.046 151.349 263.825 152.168C262.252 153.214 262.296 155.626 260.538 156.415C258.622 157.273 256.504 155.439 254.36 155.423C251.53 155.4 249.904 158.374 247.276 159.303C244.895 160.146 242.214 159.154 240.061 157.913C238.277 156.883 236.466 155.611 234.348 155.587C232.802 155.572 231.352 156.219 229.831 156.469C227.827 156.797 225.683 156.383 224.013 155.345C222.256 154.26 220.964 152.504 218.925 151.926C216.763 151.31 214.46 152.2 212.193 152.324C209.178 152.496 205.874 150.919 205.197 148.289C205.048 147.696 205.022 147.071 204.74 146.525C203.984 145.042 201.664 144.613 200.891 143.145C201.33 142.38 202.543 142.224 203.097 141.521C203.941 140.429 202.684 139.039 201.532 138.196C203.193 137.025 205.461 136.776 207.561 136.986C209.662 137.197 211.683 137.814 213.748 138.212C214.03 138.267 214.337 138.313 214.601 138.228C214.935 138.118 215.137 137.829 215.366 137.587C216.455 136.424 218.38 136.159 220.041 136.463C221.702 136.768 223.196 137.533 224.751 138.149C227.414 139.211 230.42 139.835 233.259 139.227C235.377 138.774 237.257 137.673 239.349 137.135C241.845 136.495 244.49 136.69 247.074 136.893C249.113 137.049 251.161 137.213 253.138 137.65C255.546 138.188 257.937 139.149 260.406 138.883C261.962 138.719 263.464 138.071 265.029 138.188C266.11 138.267 267.112 138.711 268.087 139.149C268.887 139.508 269.678 139.867 270.478 140.226" fill="#1C5360"/>
<path d="M267.094 144.542C269.318 144.3 271.541 144.066 273.765 143.824C275.179 143.668 276.84 143.356 277.377 142.185C277.64 141.615 277.57 140.92 277.983 140.421C278.466 139.835 279.398 139.757 280.189 139.562C280.98 139.367 281.85 138.766 281.613 138.064C281.542 137.853 281.384 137.681 281.217 137.525C280.4 136.737 279.363 136.128 278.238 135.761C277.561 135.542 276.788 135.371 276.375 134.848C275.619 133.888 276.586 132.49 276.085 131.405C275.636 130.43 274.248 130.149 273.061 130.164C271.875 130.18 270.609 130.336 269.608 129.782C269.133 129.524 268.773 129.126 268.333 128.822C267.648 128.361 266.769 128.143 265.916 128.228C265.556 128.26 265.161 128.385 265.02 128.673C264.95 128.814 264.95 128.986 264.959 129.142C265.152 132.186 268.316 134.941 267.349 137.868C267.235 138.22 267.059 138.563 266.997 138.922C266.699 140.733 269.3 142.279 268.764 144.043" fill="#1C5360"/>
<path d="M266.655 129.938C269.151 134.59 276.99 134.536 280.865 138.368C270.46 147.54 255.801 151.88 244.49 160.161C229.111 154.018 213.792 147.758 198.536 141.381C195.46 140.093 192.34 138.774 189.835 136.729C200.961 132.764 211.859 128.307 222.493 123.381C224.866 122.281 227.283 121.141 229.937 120.837C231.932 120.602 233.953 120.86 235.939 121.133C247.039 122.624 258.587 124.638 267.384 130.843" fill="#1C5360"/>
<path d="M266.655 127.237C269.151 131.889 276.99 131.835 280.865 135.667C270.46 144.839 255.801 149.179 244.49 157.461C229.111 151.318 213.792 145.057 198.536 138.68C195.46 137.392 192.34 136.073 189.835 134.028C200.961 130.063 211.859 125.606 222.493 120.681C224.866 119.58 227.283 118.44 229.937 118.136C231.932 117.902 233.953 118.159 235.939 118.432C247.039 119.923 258.587 121.937 267.384 128.143" fill="#FEC166"/>
<path d="M201.137 132.982C199.037 137.299 202.456 141.896 211.349 145.135C225.508 150.287 248.604 150.209 262.691 144.964C271.295 141.756 274.529 137.291 272.438 133.091C273.765 130.437 272.939 127.651 269.959 125.122C269.291 122.226 265.934 119.385 259.897 117.176C246.556 112.289 225.235 112.36 212.51 117.34C206.753 119.588 203.66 122.445 203.203 125.34C202.834 125.676 202.508 126.027 202.218 126.371C200.425 128.517 200.065 130.797 201.137 132.982Z" fill="#8E432C"/>
<path d="M207.034 124.318C205.233 129.407 208.168 134.84 215.805 138.657C227.968 144.737 247.821 144.644 259.923 138.454C267.314 134.668 270.091 129.399 268.298 124.451C269.441 121.32 268.729 118.034 266.171 115.045C265.6 111.626 262.709 108.277 257.524 105.662C246.064 99.8941 227.74 99.9799 216.798 105.85C211.85 108.504 209.196 111.876 208.801 115.295C208.484 115.693 208.203 116.099 207.957 116.512C206.41 119.041 206.111 121.734 207.025 124.31L207.034 124.318Z" fill="#FFA64A"/>
<path d="M253.674 118.448C259.422 115.513 259.299 110.681 253.402 107.715C247.505 104.749 238.084 104.796 232.459 107.809C226.834 110.83 226.957 115.661 232.731 118.542C238.505 121.422 247.935 121.383 253.674 118.448Z" fill="#FEC166"/>
<path d="M252.901 120.126C252.488 120.001 252.066 119.915 251.635 119.853L252.338 119.939C252.101 119.908 251.855 119.892 251.618 119.884C250.238 119.83 248.92 118.846 248.981 117.543C249.043 116.325 250.141 115.138 251.618 115.201C252.523 115.24 253.446 115.357 254.307 115.615C255.617 115.997 256.601 117.254 256.153 118.495C255.731 119.65 254.316 120.54 252.91 120.134L252.901 120.126Z" fill="#FFA64A"/>
<path d="M251.029 113.242L250.985 113.195L251.398 113.671C251.337 113.609 251.275 113.554 251.205 113.507L251.741 113.874C251.662 113.827 251.592 113.788 251.504 113.749L252.136 113.983C252.031 113.944 251.926 113.921 251.811 113.897L252.514 113.983C252.4 113.975 252.295 113.975 252.18 113.983L252.883 113.897H252.813C252.11 114.03 251.425 114.007 250.783 113.671C250.238 113.39 249.711 112.828 249.57 112.274C249.421 111.673 249.447 111.002 249.834 110.471C250.185 109.979 250.739 109.503 251.407 109.394C252.075 109.284 252.822 109.222 253.507 109.456C254.043 109.635 254.254 109.729 254.667 110.01C255.081 110.291 255.23 110.463 255.581 110.884C255.775 111.15 255.88 111.446 255.898 111.759C255.977 112.071 255.959 112.383 255.854 112.695C255.687 113.242 255.212 113.827 254.641 114.092C254.026 114.381 253.288 114.522 252.611 114.327L251.978 114.092C251.583 113.882 251.266 113.601 251.029 113.25V113.242Z" fill="#FFA64A"/>
<path d="M236.352 116.333C235.13 116.559 233.882 116.707 232.634 116.746C231.255 116.793 229.936 115.638 229.998 114.405C230.059 113.101 231.158 112.11 232.634 112.063C233.1 112.047 233.566 112.016 234.032 111.977C233.557 112.016 234.067 111.977 234.26 111.946C234.489 111.907 234.717 111.868 234.946 111.829C236.29 111.579 237.864 112.18 238.189 113.468C238.488 114.639 237.793 116.075 236.343 116.348L236.352 116.333Z" fill="#FFA64A"/>
<path d="M237.301 122.468H237.187C237.425 122.452 237.653 122.421 237.89 122.398C237.618 122.437 237.354 122.499 237.099 122.593L237.732 122.359C237.512 122.445 237.319 122.546 237.126 122.671L237.662 122.304C237.539 122.39 237.425 122.484 237.31 122.585C236.335 123.451 234.542 123.514 233.584 122.585C232.626 121.656 232.547 120.204 233.584 119.275C233.997 118.909 234.489 118.565 235.025 118.339C235.816 118.011 236.449 117.878 237.319 117.792C237.952 117.738 238.752 118.097 239.182 118.479C239.639 118.885 239.982 119.549 239.956 120.134C239.929 120.719 239.701 121.367 239.182 121.789C238.637 122.234 238.049 122.406 237.319 122.476L237.301 122.468Z" fill="#FFA64A"/>
<path d="M229.805 109.846H228.636C227.959 109.846 227.247 109.589 226.773 109.159C226.298 108.73 225.973 108.09 226 107.505C226.026 106.919 226.254 106.271 226.773 105.85C227.291 105.428 227.924 105.163 228.636 105.163H229.805C230.482 105.163 231.193 105.421 231.668 105.85C232.143 106.279 232.468 106.919 232.441 107.505C232.415 108.09 232.187 108.738 231.668 109.159C231.149 109.581 230.517 109.846 229.805 109.846Z" fill="#FFA64A"/>
<path d="M207.034 124.318C205.233 129.407 208.168 134.84 215.805 138.657C227.968 144.737 247.821 144.644 259.923 138.454C267.314 134.668 270.091 129.399 268.298 124.451C269.441 121.321 268.729 118.034 266.171 115.045C266.171 115.045 260.819 134.941 224.242 124.177C217.563 122.21 212.219 119.549 207.957 116.52C206.41 119.049 206.111 121.742 207.025 124.318H207.034Z" fill="#FF7E2B"/>
<path d="M261.909 122.257L258.939 124.357C258.367 124.755 257.831 125.044 257.076 125.044C256.425 125.044 255.661 124.786 255.212 124.357C254.334 123.506 254.061 121.859 255.212 121.047L258.183 118.948C258.754 118.549 259.29 118.261 260.046 118.261C260.696 118.261 261.461 118.518 261.909 118.948C262.788 119.798 263.06 121.445 261.909 122.257Z" fill="#FEC166"/>
<path d="M249.298 127.448C248.05 128.002 246.828 128.299 245.44 128.416C244.051 128.533 242.742 127.253 242.803 126.074C242.873 124.708 243.963 123.857 245.44 123.732C244.921 123.842 246.011 123.686 245.44 123.732C245.642 123.686 245.844 123.654 246.037 123.607C246.204 123.561 246.371 123.506 246.538 123.459C246.723 123.397 246.652 123.428 246.318 123.545C246.424 123.498 246.529 123.459 246.635 123.405C247.865 122.858 249.544 123.077 250.238 124.248C250.871 125.309 250.607 126.862 249.289 127.448H249.298Z" fill="#FEC166"/>
<path d="M249.895 130.078V130.039C249.816 128.939 250.783 128.135 251.829 127.784C252.971 127.393 254.36 128.002 254.931 128.892C255.661 130.024 255.195 131.483 253.956 132.162C253.147 132.6 252.04 132.717 251.126 132.92C249.79 133.216 248.208 132.537 247.883 131.28C247.558 130.024 248.296 128.72 249.728 128.4C250.432 128.244 251.17 128.127 251.855 127.916L251.222 128.15L251.293 128.111L250.344 128.954L250.379 128.892V131.257L250.352 131.218L251.926 132.295H251.873C252.339 132.287 252.804 132.287 253.279 132.287L253.235 132.303L255.168 130.047V130.086C255.256 131.312 253.894 132.483 252.532 132.428C251.029 132.365 249.983 131.398 249.895 130.086V130.078Z" fill="#FEC166"/>
<path d="M231.571 126.082C230.526 125.754 229.489 125.434 228.443 125.106C227.142 124.7 226.14 123.49 226.597 122.226C227.01 121.086 228.452 120.157 229.84 120.587L232.969 121.562C234.269 121.968 235.271 123.178 234.814 124.443C234.401 125.582 232.96 126.511 231.571 126.082Z" fill="#FEC166"/>
<path d="M217.642 116.762C217.58 116.676 217.51 116.59 217.44 116.504L217.853 116.981C217.686 116.793 217.501 116.629 217.29 116.481L217.826 116.848C217.616 116.707 217.387 116.582 217.15 116.489C216.587 116.262 216.095 115.599 215.937 115.092C215.761 114.53 215.84 113.788 216.201 113.288C216.561 112.789 217.106 112.352 217.774 112.211L218.477 112.125C218.951 112.125 219.4 112.235 219.804 112.445C220.797 112.844 221.614 113.585 222.185 114.397C222.924 115.435 222.467 117.027 221.236 117.597C219.936 118.206 218.415 117.863 217.633 116.754L217.642 116.762Z" fill="#FEC166"/>
<path d="M218.652 127.557C218.441 127.503 218.23 127.456 218.02 127.409C217.369 127.268 218.529 127.409 217.853 127.393C217.633 127.393 217.413 127.378 217.202 127.385C217.053 127.385 216.402 127.471 217.035 127.385C215.682 127.573 214.135 127.073 213.792 125.746C213.502 124.622 214.179 123.069 215.638 122.866C217.097 122.663 218.582 122.655 220.059 123.038C221.377 123.389 222.343 124.7 221.904 125.918C221.465 127.136 220.076 127.924 218.661 127.557H218.652Z" fill="#FEC166"/>
<path d="M215.111 122.163C215.111 122.163 215.102 122.132 215.093 122.117L215.357 122.679C215.357 122.679 215.339 122.647 215.331 122.632L215.744 123.108C215.744 123.108 215.691 123.061 215.665 123.038L216.201 123.405C216.201 123.405 216.157 123.381 216.13 123.366L216.763 123.6C216.719 123.584 216.675 123.568 216.622 123.568L217.326 123.654C217.326 123.654 217.246 123.654 217.211 123.654L217.914 123.568C217.914 123.568 217.862 123.584 217.835 123.592L218.468 123.358C218.468 123.358 218.415 123.381 218.398 123.397L218.934 123.03C218.934 123.03 218.907 123.053 218.89 123.069C218.653 123.295 218.371 123.459 218.037 123.553C217.721 123.701 217.387 123.764 217.018 123.756C216.658 123.771 216.315 123.701 215.998 123.553C215.673 123.459 215.392 123.295 215.146 123.069C214.689 122.624 214.346 122.039 214.373 121.414L214.469 120.79C214.592 120.392 214.821 120.048 215.146 119.759C215.322 119.595 215.533 119.447 215.761 119.338C215.875 119.283 215.998 119.244 216.113 119.205C216.227 119.166 216.359 119.104 216.482 119.072C216.658 119.026 217.027 119.002 217.211 118.987C217.238 118.987 217.255 118.987 217.282 118.987C217.405 118.987 217.651 119.026 217.677 119.033C217.747 119.041 217.958 119.057 218.081 119.08C218.099 119.08 218.116 119.088 218.134 119.096C218.319 119.151 218.617 119.26 218.793 119.346C218.811 119.353 218.837 119.369 218.855 119.377C218.969 119.439 219.312 119.681 219.408 119.759C219.426 119.775 219.443 119.791 219.461 119.806L219.479 119.83L219.892 120.306C219.962 120.407 219.988 120.493 220.05 120.626C220.094 120.712 220.164 120.844 220.199 120.954C220.314 121.266 220.322 121.578 220.243 121.89C220.226 122.203 220.12 122.491 219.927 122.765C219.76 123.038 219.531 123.256 219.25 123.42C218.995 123.631 218.696 123.764 218.354 123.842L217.651 123.928C217.176 123.928 216.728 123.818 216.324 123.608L215.788 123.241C215.462 122.952 215.234 122.601 215.111 122.21V122.163Z" fill="#FEC166"/>
<path d="M237.451 135.659L233.321 137.486C232.09 138.032 230.412 137.814 229.717 136.643C229.085 135.581 229.348 134.02 230.667 133.443C231.985 132.865 233.417 132.225 234.797 131.616C236.028 131.07 237.706 131.288 238.4 132.459C239.033 133.521 238.77 135.082 237.451 135.659Z" fill="#FEC166"/>
<path d="M238.831 130.898L236.51 131.39C235.175 131.671 233.593 131.015 233.268 129.751C232.942 128.486 233.672 127.175 235.113 126.87L237.433 126.379C238.769 126.098 240.351 126.753 240.676 128.018C241.001 129.282 240.272 130.594 238.831 130.898Z" fill="#FEC166"/>
<path d="M226.58 108.23C226.413 108.558 226.677 108.098 226.659 108.067C226.686 108.106 226.554 108.363 226.536 108.41C226.475 108.621 226.431 108.824 226.395 109.042L226.492 108.418C226.466 108.66 226.457 108.894 226.466 109.128C226.501 110.354 225.227 111.524 223.829 111.47C222.432 111.415 221.237 110.439 221.193 109.128C221.158 107.973 221.492 106.911 222.036 105.873C222.3 105.374 223.03 104.937 223.61 104.796C224.242 104.64 225.077 104.71 225.64 105.03C226.932 105.772 227.204 107.044 226.589 108.23H226.58Z" fill="#FEC166"/>
<path d="M218.679 109.44C218.011 110.112 217.018 110.619 216.042 110.822C215.357 110.962 214.628 110.908 214.012 110.588C213.468 110.307 212.94 109.745 212.8 109.191C212.65 108.59 212.677 107.918 213.063 107.387C213.424 106.888 213.968 106.451 214.636 106.31C214.786 106.279 214.935 106.24 215.076 106.193L214.443 106.427C214.672 106.341 214.882 106.232 215.076 106.107L214.54 106.474C214.689 106.373 214.812 106.263 214.935 106.139C215.366 105.709 216.166 105.452 216.798 105.452C217.431 105.452 218.213 105.709 218.662 106.139C219.11 106.568 219.461 107.169 219.435 107.793C219.409 108.418 219.145 108.964 218.662 109.448L218.679 109.44Z" fill="#FEC166"/>
<path d="M263.596 115.786C263.596 115.786 263.517 115.864 263.482 115.903L263.895 115.427C263.807 115.536 263.737 115.638 263.675 115.763L263.939 115.201C263.869 115.349 263.825 115.49 263.807 115.646L263.904 115.021C263.895 115.123 263.886 115.224 263.904 115.326C263.939 115.903 263.588 116.582 263.131 116.981C262.674 117.379 261.927 117.691 261.267 117.667C260.608 117.644 259.879 117.441 259.404 116.981C258.93 116.52 258.675 115.974 258.631 115.326C258.613 115.014 258.675 114.701 258.728 114.397C258.754 114.272 258.78 114.147 258.833 114.022C259.079 113.406 259.387 112.953 259.87 112.469C260.301 112.04 261.1 111.782 261.733 111.782C262.366 111.782 263.148 112.04 263.596 112.469C264.045 112.898 264.396 113.499 264.37 114.124C264.343 114.748 264.08 115.295 263.596 115.778V115.786Z" fill="#FEC166"/>
<path d="M268.088 120.384C268 120.883 267.912 121.375 267.824 121.875C267.727 122.413 267.121 123.006 266.611 123.272C266.049 123.568 265.214 123.693 264.581 123.506C263.948 123.319 263.324 122.975 263.008 122.429L262.744 121.867C262.621 121.453 262.621 121.039 262.744 120.618C262.832 120.118 262.92 119.627 263.008 119.127C263.105 118.588 263.711 117.995 264.221 117.73C264.783 117.433 265.618 117.308 266.251 117.496C266.884 117.683 267.508 118.027 267.824 118.573L268.088 119.135C268.211 119.549 268.211 119.962 268.088 120.384Z" fill="#FEC166"/>
<path d="M267.824 131.647C267.648 131.85 267.657 131.835 267.868 131.593C267.789 131.686 267.71 131.78 267.631 131.874C267.472 132.061 267.323 132.256 267.174 132.451C266.875 132.842 266.594 133.232 266.321 133.638C265.609 134.684 263.922 135.168 262.718 134.481C261.514 133.794 261.013 132.397 261.769 131.28C262.463 130.25 263.263 129.29 264.098 128.345C264.484 127.908 265.363 127.659 265.961 127.659C266.611 127.659 267.376 127.916 267.824 128.345C268.272 128.775 268.624 129.376 268.597 130C268.562 130.664 268.281 131.14 267.824 131.655V131.647Z" fill="#FEC166"/>
<path d="M247.945 140.296C247.742 140.28 247.54 140.265 247.329 140.272C247.233 140.272 246.477 140.358 246.864 140.288C247.25 140.218 246.591 140.358 246.512 140.374C246.371 140.405 245.668 140.647 246.275 140.413C245.598 140.671 244.983 140.827 244.245 140.647C243.629 140.499 242.97 140.077 242.672 139.57C242.074 138.563 242.267 136.885 243.621 136.37C244.974 135.855 246.424 135.503 247.945 135.62C249.316 135.722 250.651 136.619 250.581 137.962C250.52 139.141 249.412 140.413 247.945 140.304V140.296Z" fill="#FEC166"/>
<path d="M216.043 131.616L216.078 131.585C216.86 130.945 218.328 130.586 219.277 131.218C220.041 131.725 220.727 132.412 220.639 133.341C220.551 134.27 219.892 135.441 218.706 135.597C217.897 135.706 217.22 135.714 216.491 135.347C216.122 135.16 215.788 134.918 215.428 134.723C215.067 134.528 214.733 134.364 214.373 134.208C214.215 134.137 214.048 134.067 213.89 134.005C214.285 134.161 213.529 133.88 213.529 133.88C212.246 133.45 211.218 132.28 211.684 130.999C212.088 129.883 213.547 128.9 214.927 129.36C215.762 129.641 216.596 129.946 217.387 130.32C218.02 130.617 218.583 131.031 219.215 131.327L217.185 131.093L217.308 131.078L215.375 133.333V133.271C215.814 133.942 216.254 134.621 216.684 135.293L216.623 135.254L219.822 134.887L219.787 134.918C218.776 135.745 217.045 135.878 216.06 134.918C215.129 134.012 214.979 132.49 216.06 131.608L216.043 131.616Z" fill="#FEC166"/>
<path d="M207.043 122.437L205.9 120.509C205.259 119.424 205.549 117.917 206.85 117.308C208.062 116.739 209.767 116.988 210.453 118.151L211.595 120.079C212.237 121.164 211.947 122.671 210.646 123.28C209.433 123.85 207.728 123.6 207.043 122.437Z" fill="#FEC166"/>
<path d="M272.578 146.501C269.186 146.501 269.177 141.818 272.578 141.818C275.979 141.818 275.979 146.501 272.578 146.501Z" fill="#1C5360"/>
<path d="M250.387 64.1443L247.443 44.9504L233.944 38.1673" stroke="#1C5360" stroke-width="30.3919" stroke-miterlimit="10" stroke-linecap="round"/>
<circle cx="38.5135" cy="38.5135" r="38.5135" transform="matrix(-1 0 0 1 77.0269 34.6622)" fill="#F23E30"/>
<circle cx="37.2297" cy="37.2297" r="37.2297" transform="matrix(-1 0 0 1 79.5947 32.0946)" fill="#F77A74"/>
<path d="M28.2434 52.6351L62.9056 83.4459" stroke="#FFAAA6" stroke-width="6.41892" stroke-linecap="round"/>
<path d="M60.9797 50.7095L30.1689 85.3716" stroke="#FFAAA6" stroke-width="6.41892" stroke-linecap="round"/>
<path d="M24.3921 55.2027L59.0543 86.0135" stroke="#AD211A" stroke-width="6.41892" stroke-linecap="round"/>
<path d="M57.1284 53.277L26.3176 87.9392" stroke="#AD211A" stroke-width="6.41892" stroke-linecap="round"/>
</svg>
